<svg width="724" height="590" viewBox="0 0 724 590" fill="none" xmlns="http://www.w3.org/2000/svg">
<path d="M283.508 148.047C281.294 151.358 279.644 158.935 278.136 163.04C276.628 167.146 276.398 179.506 276.12 182.212C275.842 184.918 276.805 193.539 276.805 193.539L287.931 195.35C287.931 195.35 288.956 189.047 291.92 185.611C295.101 181.917 301.308 173.453 299.747 170.198C297.259 165.004 283.826 165.444 283.826 165.444C283.826 165.444 284.467 161.371 284.79 158.31C285.113 155.249 288.976 149.656 287.452 147.769C285.927 145.881 284.056 147.228 283.508 148.047Z" fill="#F7A491"/>
<path d="M66.8818 98.8163L66.1358 109.499L56.1025 113.306L79.9799 130.307L90.1866 126.331V115.536L66.8818 98.8163Z" fill="url(#paint0_linear)"/>
<path d="M169.087 161.33C174.534 138.416 160.373 115.426 137.459 109.979C114.545 104.533 91.5546 118.694 86.1083 141.608C80.6621 164.522 94.8226 187.512 117.737 192.959C140.651 198.405 163.641 184.244 169.087 161.33Z" fill="url(#paint1_linear)"/>
<path d="M140.472 182.789C157.773 175.683 166.038 155.897 158.932 138.595C151.825 121.294 132.039 113.03 114.738 120.136C97.4366 127.242 89.172 147.029 96.2783 164.33C103.385 181.631 123.171 189.896 140.472 182.789Z" fill="#FA5457"/>
<path d="M148.875 155.934C151.341 144.183 143.814 132.659 132.063 130.193C120.312 127.728 108.787 135.255 106.322 147.006C103.856 158.756 111.383 170.281 123.134 172.747C134.885 175.212 146.41 167.685 148.875 155.934Z" fill="#53CD9F"/>
<path d="M138.078 151.495C138.078 153.562 137.465 155.583 136.317 157.302C135.168 159.021 133.536 160.361 131.626 161.152C129.716 161.943 127.614 162.15 125.586 161.747C123.559 161.343 121.696 160.348 120.234 158.886C118.773 157.424 117.777 155.562 117.374 153.534C116.97 151.507 117.177 149.405 117.969 147.495C118.76 145.585 120.099 143.952 121.818 142.804C123.537 141.655 125.558 141.042 127.626 141.042C130.397 141.043 133.055 142.145 135.015 144.105C136.975 146.065 138.077 148.723 138.078 151.495Z" fill="#FA8925"/>
<path d="M126.887 152.366C126.705 152.366 126.528 152.31 126.379 152.205L66.8088 111.418C66.7052 111.354 66.6157 111.268 66.5457 111.168C66.4758 111.068 66.4269 110.954 66.4019 110.835C66.377 110.715 66.3764 110.591 66.4004 110.471C66.4244 110.351 66.4724 110.238 66.5415 110.137C66.6106 110.036 66.6993 109.95 66.8025 109.884C66.9056 109.818 67.021 109.774 67.1416 109.754C67.2622 109.734 67.3857 109.739 67.5045 109.768C67.6234 109.796 67.7351 109.849 67.8331 109.922L126.851 150.35C127.266 150.632 127.178 152.366 126.887 152.366Z" fill="#002A24"/>
<path d="M124.48 146.357L124.71 149.842L121.367 150.93L127.15 152.862L127.485 150.124L124.48 146.357Z" fill="url(#paint2_linear)"/>
<path d="M450.876 532.831H430.386C428.527 532.832 426.686 532.466 424.968 531.755C423.251 531.044 421.69 530.001 420.376 528.687C419.061 527.372 418.018 525.812 417.307 524.094C416.596 522.376 416.23 520.536 416.231 518.677V456.251L330.791 455.041V518.665C330.792 520.523 330.426 522.364 329.715 524.081C329.004 525.798 327.962 527.359 326.648 528.673C325.334 529.988 323.774 531.03 322.057 531.742C320.339 532.453 318.499 532.819 316.64 532.819H298.114C289.091 532.819 280.437 536.404 274.056 542.784C267.675 549.165 264.091 557.819 264.091 566.843H484.907C484.904 557.82 481.317 549.168 474.935 542.789C468.553 536.411 459.898 532.829 450.876 532.831Z" fill="#26241B"/>
<path d="M700.046 130.34H501.069C496.651 130.34 493.069 133.921 493.069 138.34V557.778C493.069 562.196 496.651 565.778 501.069 565.778H700.046C704.465 565.778 708.046 562.196 708.046 557.778V138.34C708.046 133.921 704.465 130.34 700.046 130.34Z" fill="url(#paint3_linear)"/>
<path d="M710.002 211.149L710.949 217.545L700.827 220.202L701.057 229.719L693.811 232.945L695.444 236.615L705.134 232.3L704.921 223.279L715.446 220.517L714.022 210.895L710.002 211.149Z" fill="#FFB268"/>
<path d="M614.444 111.898L611.561 105.083L604.302 103.595C604.116 103.557 603.945 103.468 603.807 103.338C603.67 103.208 603.571 103.041 603.523 102.858C603.474 102.675 603.478 102.482 603.534 102.3C603.59 102.119 603.695 101.957 603.838 101.833L609.428 96.9936L608.621 89.6461C608.6 89.4579 608.632 89.2676 608.714 89.0967C608.795 88.9258 608.923 88.781 609.082 88.6787C609.241 88.5764 609.426 88.5206 609.615 88.5177C609.805 88.5148 609.991 88.5648 610.154 88.6621L616.489 92.477L623.227 89.4243C623.4 89.3464 623.591 89.3183 623.779 89.3433C623.967 89.3683 624.144 89.4454 624.291 89.5658C624.437 89.6862 624.547 89.8451 624.608 90.0246C624.668 90.2041 624.678 90.3971 624.635 90.5817L622.961 97.784L627.95 103.248C628.078 103.388 628.164 103.562 628.198 103.748C628.233 103.935 628.214 104.127 628.145 104.304C628.076 104.481 627.959 104.635 627.806 104.748C627.654 104.862 627.473 104.93 627.284 104.946L619.921 105.587L616.267 112.039C616.171 112.204 616.03 112.338 615.861 112.427C615.692 112.515 615.502 112.554 615.311 112.539C615.121 112.525 614.939 112.457 614.786 112.343C614.632 112.23 614.514 112.076 614.444 111.898Z" fill="url(#paint4_linear)"/>
<path d="M430.789 47.6338L428.994 43.3915L424.482 42.464C424.367 42.4398 424.26 42.384 424.175 42.3028C424.09 42.2215 424.029 42.1181 423.999 42.0042C423.969 41.8902 423.972 41.7702 424.007 41.6577C424.041 41.5451 424.107 41.4445 424.196 41.3671L427.676 38.3506L427.16 33.7695C427.146 33.6522 427.166 33.5334 427.217 33.4268C427.268 33.3201 427.348 33.2298 427.447 33.166C427.546 33.1023 427.662 33.0676 427.78 33.0659C427.898 33.0642 428.014 33.0956 428.115 33.1566L432.059 35.5358L436.253 33.6324C436.361 33.5832 436.48 33.5652 436.598 33.5805C436.716 33.5958 436.826 33.6438 436.918 33.719C437.01 33.7942 437.078 33.8936 437.116 34.0059C437.154 34.1183 437.16 34.2389 437.132 34.3543L436.092 38.8426L439.197 42.2422C439.276 42.3288 439.33 42.4357 439.351 42.5509C439.373 42.6661 439.363 42.7851 439.321 42.8946C439.279 43.0042 439.208 43.1 439.115 43.1713C439.021 43.2427 438.91 43.2868 438.794 43.2987L434.205 43.702L431.93 47.7064C431.872 47.811 431.785 47.897 431.68 47.9544C431.575 48.0118 431.456 48.0382 431.337 48.0306C431.217 48.023 431.102 47.9817 431.005 47.9115C430.908 47.8412 430.833 47.745 430.789 47.6338Z" fill="url(#paint5_linear)"/>
<path d="M717.712 348.632L714.833 352.616L707.913 348.696L702.989 353.999L697.327 351.914L696.271 354.777L703.84 357.572L708.506 352.543L715.708 356.62L720.035 350.628L717.712 348.632Z" fill="#FF5459"/>
<path d="M619.739 61.0424L581.832 41.2138C581.651 41.119 581.49 40.9895 581.359 40.8326C581.228 40.6757 581.129 40.4945 581.068 40.2994C581.007 40.1043 580.985 39.8991 581.003 39.6955C581.022 39.4919 581.08 39.2939 581.175 39.1128L594.515 13.5981C594.609 13.417 594.739 13.2563 594.896 13.1253C595.053 12.9942 595.234 12.8954 595.429 12.8343C595.624 12.7733 595.829 12.7513 596.033 12.7695C596.237 12.7878 596.435 12.846 596.616 12.9408L634.523 32.7694C634.887 32.9624 635.16 33.2913 635.283 33.6847C635.406 34.0781 635.369 34.5042 635.18 34.8704L621.84 60.385C621.745 60.5662 621.616 60.7268 621.459 60.8579C621.302 60.989 621.121 61.0878 620.926 61.1489C620.73 61.2099 620.525 61.2319 620.322 61.2136C620.118 61.1954 619.92 61.1372 619.739 61.0424Z" fill="#FF9092"/>
<path d="M610.081 24.2363L598.548 18.1994C598.367 18.1046 598.206 17.9751 598.075 17.8182C597.944 17.6613 597.845 17.4802 597.784 17.2851C597.723 17.09 597.701 16.8847 597.719 16.6811C597.737 16.4775 597.796 16.2795 597.89 16.0984L599.907 12.215C600.002 12.0338 600.131 11.8732 600.288 11.7421C600.445 11.611 600.626 11.5122 600.821 11.4511C601.016 11.3901 601.221 11.3681 601.425 11.3864C601.629 11.4046 601.827 11.4628 602.008 11.5576L613.553 17.6066C613.734 17.7014 613.895 17.8309 614.026 17.9878C614.157 18.1447 614.256 18.3259 614.317 18.521C614.378 18.7161 614.4 18.9213 614.382 19.1249C614.364 19.3285 614.305 19.5265 614.211 19.7076L612.194 23.5871C612.098 23.7687 611.968 23.9296 611.809 24.0605C611.651 24.1915 611.469 24.29 611.272 24.3503C611.076 24.4106 610.87 24.4316 610.665 24.412C610.461 24.3925 610.262 24.3328 610.081 24.2363Z" fill="#FF9092"/>
<path d="M621.889 60.5706C621.679 60.8938 621.356 61.1275 620.984 61.2266C620.611 61.3257 620.215 61.283 619.872 61.1069L581.695 41.1453C581.352 40.9661 581.088 40.6657 580.955 40.3027C580.821 39.9396 580.828 39.5399 580.973 39.1814L590.523 15.5782C590.603 15.3762 590.726 15.1933 590.881 15.0413C591.037 14.8893 591.223 14.7715 591.427 14.6956C591.631 14.6196 591.848 14.5871 592.065 14.6002C592.283 14.6134 592.495 14.6717 592.688 14.7717L635.096 36.9513C635.287 37.0517 635.455 37.1909 635.59 37.36C635.725 37.5291 635.822 37.7244 635.877 37.9335C635.932 38.1425 635.943 38.3607 635.909 38.5741C635.875 38.7876 635.797 38.9916 635.68 39.1733L621.889 60.5706Z" fill="#FA5457"/>
<path d="M606.431 268.232L599.224 270.196L597.672 261.466L600.031 261.046L601.124 267.196L605.798 265.922L606.431 268.232Z" fill="#FFB268"/>
<path d="M641.132 74.6768L645.822 79.149C656.912 89.727 665.956 102.259 672.502 116.116L673.22 117.641C673.22 117.641 685.495 118.726 687.213 107.624C676.549 95.6484 667.484 82.3397 660.247 68.031L658.033 62.8409L641.132 74.6768Z" fill="#FFC979"/>
<path d="M658.025 62.841C658.626 63.704 655.335 67.043 650.67 70.2974C646.004 73.5517 641.713 75.5398 641.108 74.6648C640.503 73.7897 643.822 70.4224 648.488 67.168C653.154 63.9137 657.424 61.9619 658.025 62.841Z" fill="#5E5E5E"/>
<path d="M658.041 62.8409C658.041 62.8409 648.693 70.749 644.842 71.5596L646.052 73.1726C647.653 72.2931 649.205 71.3265 650.701 70.2772C655.278 67.0672 658.549 63.7685 658.041 62.8409Z" fill="#FFA41E"/>
<path d="M670.53 85.8271C670.53 87.1902 670.026 93.0859 660.23 95.5338C660.876 96.4088 661.509 97.296 662.13 98.1872C668.328 96.3564 671.119 93.1747 672.369 90.751C672.566 90.3478 672.808 89.8517 672.966 89.4565C672.14 88.2548 671.328 87.045 670.53 85.8271Z" fill="url(#paint6_linear)"/>
<path d="M661.11 93.7916L646.697 93.2755L650.113 96.1749L648.072 99.8809L661.715 96.4008L661.11 93.7916Z" fill="url(#paint7_linear)"/>
<path d="M662.425 97.1428L657.304 106.067L660.905 104.692L662.292 107.527L664.7 98.1429L662.425 97.1428Z" fill="url(#paint8_linear)"/>
<path d="M664.38 99.5624C663.443 99.6571 662.498 99.4699 661.668 99.0247C660.837 98.5794 660.158 97.8964 659.718 97.0631C659.278 96.2298 659.096 95.2841 659.197 94.347C659.297 93.41 659.675 92.5243 660.282 91.8033C660.889 91.0823 661.697 90.5588 662.604 90.2999C663.51 90.0409 664.472 90.0583 665.369 90.3499C666.265 90.6414 667.054 91.1937 667.634 91.9362C668.215 92.6786 668.56 93.5774 668.627 94.5175C668.731 95.7492 668.342 96.9718 667.546 97.9175C666.75 98.8632 665.612 99.4547 664.38 99.5624Z" fill="url(#paint9_linear)"/>
<path d="M91.1062 54.9652L89.4286 59.1874L92.6144 62.5546L90.4005 67.16L94.9009 69.7005L92.6265 75.0196L96.4817 77.8707L95.1308 83.343L93.058 82.8309L94.0662 78.7377L90.0012 75.7294L92.187 70.62L87.6139 68.035L90.0537 62.9539L86.9445 59.6673L88.4971 55.7516L86.0049 54.0175L87.2227 52.2633L91.1062 54.9652Z" fill="url(#paint10_linear)"/>
<path d="M28.6111 163.887L32.8212 165.597L36.2167 162.44L40.8018 164.694L43.3787 160.218L48.6776 162.532L51.561 158.705L57.0212 160.101L56.4929 162.169L52.4119 161.125L49.3672 165.166L44.2739 162.936L41.6527 167.488L36.5917 165.004L33.2769 168.085L29.3733 166.5L27.6231 168.981L25.877 167.747L28.6111 163.887Z" fill="url(#paint11_linear)"/>
<path d="M61.9981 231.914L35.8745 235.64C34.648 235.814 33.4025 235.495 32.4114 234.752C31.4203 234.008 30.7644 232.902 30.5877 231.676L28.4423 216.635C28.3557 216.027 28.3896 215.408 28.5421 214.813C28.6947 214.219 28.9628 213.66 29.3313 213.169C29.6998 212.678 30.1614 212.265 30.6897 211.952C31.218 211.64 31.8027 211.434 32.4104 211.348L58.53 207.613C59.138 207.526 59.7573 207.56 60.3523 207.713C60.9474 207.865 61.5065 208.134 61.9976 208.503C62.4887 208.872 62.9022 209.334 63.2143 209.863C63.5265 210.392 63.7312 210.977 63.8168 211.586L65.9622 226.627C66.1372 227.854 65.8179 229.1 65.0746 230.092C64.3312 231.083 63.2246 231.739 61.9981 231.914Z" fill="#FA5457"/>
<path d="M52.818 221.333C52.9338 221.242 53.0236 221.121 53.0784 220.985C53.1332 220.848 53.1511 220.699 53.1303 220.553C53.1095 220.407 53.0508 220.269 52.9599 220.153C52.869 220.037 52.7493 219.947 52.6126 219.892L44.0621 216.456C43.9249 216.401 43.7757 216.383 43.6294 216.404C43.4831 216.425 43.3449 216.484 43.2287 216.576C43.1125 216.667 43.0224 216.787 42.9675 216.925C42.9125 217.062 42.8947 217.211 42.9159 217.357L44.2178 226.478C44.2387 226.624 44.2977 226.762 44.3888 226.878C44.48 226.994 44.6 227.084 44.737 227.139C44.8739 227.194 45.0229 227.212 45.169 227.191C45.3152 227.171 45.4532 227.112 45.5695 227.021L52.818 221.333Z" fill="white"/>
<path d="M44.9882 136.594L39.6893 131.646L32.8337 134.417L27.2848 128.448L20.893 133.646L14.3198 127.178L7.84335 131.239L0.503906 126.049L2.46781 123.27L7.95626 127.15L14.7916 122.863L21.1068 129.085L27.6074 123.799L33.729 130.384L40.4232 127.678L45.335 132.263L49.3596 129.569L51.2549 132.396L44.9882 136.594Z" fill="#FF7E82"/>
<path d="M557.22 201.823H179.146C168.757 201.823 160.334 210.245 160.334 220.635V441.536C160.334 451.926 168.757 460.348 179.146 460.348H557.22C567.61 460.348 576.033 451.926 576.033 441.536V220.635C576.033 210.245 567.61 201.823 557.22 201.823Z" fill="#26241B"/>
<path d="M565.455 441.536V220.631C565.455 216.085 561.77 212.4 557.224 212.4L179.146 212.4C174.601 212.4 170.916 216.085 170.916 220.631V441.536C170.916 446.082 174.601 449.767 179.146 449.767H557.224C561.77 449.767 565.455 446.082 565.455 441.536Z" fill="#FFB268"/>
<path d="M542.183 229.95H294.933V434.386H542.183V229.95Z" fill="#EDFDFC"/>
<path d="M224.881 536.323H131.081C124.629 536.323 119.387 541.755 119.387 548.454C119.387 555.152 124.629 560.584 131.081 560.584H224.889C222.739 556.903 221.605 552.718 221.603 548.455C221.602 544.192 222.733 540.005 224.881 536.323Z" fill="#FAE0B2"/>
<path d="M41.4512 567.601C41.4512 568.079 41.6411 568.537 41.9791 568.875C42.3172 569.214 42.7757 569.403 43.2538 569.403H723.471V565.798H43.2497C42.7724 565.799 42.3149 565.99 41.9777 566.328C41.6405 566.666 41.4512 567.123 41.4512 567.601Z" fill="url(#paint12_linear)"/>
<path d="M330.944 460.102H364.213L362.935 454.578L372.004 414.182L384.84 334.336L344.13 322.681L333.359 350.567C333.359 350.567 326.334 417.106 330.427 456.973C330.546 458.024 330.718 459.069 330.944 460.102Z" fill="#585858"/>
<path d="M411.263 460.102L409.287 454.521L405.306 355.189L396.068 324.129L349.341 325.089L348.055 349.736L379.243 460.102H411.263Z" fill="#282828"/>
<path d="M353.987 212.4L306.607 239.774L291.319 186.918L274.499 188.083C274.499 188.083 284.052 264.821 292.646 270.196C303.562 277.052 343.57 262.248 343.57 262.248L353.987 212.4Z" fill="#FFB4B5"/>
<path d="M390.967 210.211C390.967 210.211 406.613 212.187 410.267 214.872C414.38 217.893 427.123 231.987 427.123 231.987C427.123 231.987 400.605 307.962 401.629 321.48C402.653 334.997 405.565 355.015 405.565 355.015C405.565 355.015 354.06 358.266 334.554 350.579C334.554 350.579 340.716 319.931 340.716 311.906C340.716 303.881 349.769 224.583 352.233 220.365C354.697 216.147 370.751 209.747 370.751 209.747L390.967 210.211Z" fill="#FFE6C0"/>
<path d="M320.257 414.598C319.927 412.985 330.839 336.332 331.061 333.614C333.271 306.595 343.385 224.543 352.878 213.138C354.019 212.078 356.846 211.19 359.947 210.811C365.153 210.174 370.75 209.743 370.75 209.743C370.75 209.743 364.129 214.985 362.548 217.215C355.471 227.22 352.583 238.83 351.023 251.202C346.494 287.093 342.377 417.925 340.767 418.505C338.969 419.155 320.987 418.183 320.257 414.598Z" fill="#FF7E82"/>
<path d="M387.111 140.671C387.111 140.671 396.539 134.3 400.523 145.462C401.785 145.378 403.051 145.411 404.306 145.559C406.246 146.212 408.117 148.233 409.847 149.341C416.001 153.281 418.84 160.939 419.175 167.968C419.578 176.501 416.053 182.74 410.444 188.902C408.79 190.721 407.024 192.491 404.859 193.652C402.245 195.052 400.181 193.943 397.725 194.536C395.656 195.036 394.93 197.217 392.482 196.431C389.063 195.33 385.478 191.047 381.239 191.68C377.001 192.314 367.234 188.507 367.21 188.495C354.656 183.599 363.133 159.302 365.536 150.68C367.811 142.563 379.344 137.731 387.111 140.671Z" fill="#473B1E"/>
<path d="M375.767 195.874L372.509 204.791L370.75 209.763C370.75 209.763 370.629 218.663 372.702 220.97C376.275 224.942 390.966 210.231 390.966 210.231L395.62 182.208L375.767 195.874Z" fill="#F7A491"/>
<path d="M394.112 191.293C388.523 199.955 378.897 203.911 372.477 204.855L375.767 195.874L395.62 182.208L394.112 191.293Z" fill="#F47458"/>
<path d="M391.805 153.471C390.049 152.41 388.081 151.747 386.041 151.528C384 151.308 381.936 151.539 379.995 152.202C378.053 152.865 376.279 153.946 374.799 155.367C373.32 156.789 372.169 158.518 371.428 160.431C369.811 164.652 368.464 168.972 367.396 173.364C364.528 185.309 368.162 198.367 373.606 199.576C379.05 200.786 395.822 196.35 400.129 179.413C402.794 168.981 399.657 158.274 391.805 153.471Z" fill="#F7A491"/>
<path d="M395.826 179.881C395.241 182.526 396.524 185.059 398.685 185.527C400.847 185.994 403.077 184.244 403.661 181.599C404.246 178.953 402.968 176.421 400.802 175.953C398.637 175.485 396.411 177.235 395.826 179.881Z" fill="#F7A491"/>
<path d="M390.966 210.21C390.966 210.21 413.843 212.461 419.662 216.288C423.36 218.707 420.469 245.815 420.469 245.815C420.469 245.815 415.226 286.75 415.96 307.43C416.029 309.446 416.13 311.398 416.259 313.322C418.275 344.446 434.926 418.977 433.474 420.284C424.106 425.526 372.984 425.3 372.388 421.163C367.383 386.147 390.966 210.21 390.966 210.21Z" fill="#FF7E82"/>
<path d="M415.912 305.756C415.912 306.329 415.936 306.885 415.956 307.43C416.025 309.398 416.126 311.333 416.247 313.229L385.11 298.711L415.912 305.756Z" fill="#D70004"/>
<path d="M351.559 275.814C352.928 276.428 354.253 277.137 355.523 277.935C356.774 278.778 358.189 279.145 359.346 279.709C361.645 280.806 363.306 281.633 363.298 281.516C363.29 281.399 363.891 281.266 362.746 280.476C361.367 279.524 358.004 278.133 356.084 276.584C354.995 275.705 352.608 274.003 352.608 274.003C352.608 274.003 349.47 270.777 349.595 270.539C350.269 269.245 353.023 270.866 354.35 272.245C355.64 272.709 358.1 274.568 358.1 274.568C358.1 274.568 363.903 277.249 364.274 276.459C364.436 276.12 361.048 274.039 358.068 271.535C355.286 269.192 352.85 266.389 353.229 265.789C353.858 264.768 357.221 267.051 357.221 267.051C357.221 267.051 359.492 268.773 360.29 269.289C361.222 269.894 364.153 271.499 364.153 271.499C364.153 271.499 374.614 276.62 374.9 275.838C375.187 275.056 375.106 272.729 374.566 272.209C374.025 271.688 372.618 271.067 371.977 270.656C371.138 270.116 369.843 268.757 370.44 268.067C371.037 267.377 375.973 269.216 375.973 269.216C375.973 269.216 378.893 270.559 380.203 272.346C384.732 278.532 383.526 278.992 384.131 279.798C384.845 280.722 399.524 286.081 399.524 286.081C399.524 286.081 443.597 297.014 445.956 297.804L440.096 315.576C437.382 315.197 388.075 295.441 383.054 293.098C383.054 293.098 376.098 292.449 371.763 291.888C367.428 291.327 363.444 288.912 362.234 288.573C359.205 287.476 356.318 286.019 353.636 284.234C349.793 281.693 354.568 282.399 354.568 282.399C354.568 282.399 362.512 285.863 362.665 285.222C362.782 284.714 358.334 283.073 354.052 280.306C352.951 279.592 351.866 278.887 350.878 278.229C348.277 276.471 348.559 274.431 351.559 275.814Z" fill="#F8A492"/>
<path d="M417.714 215.36C417.714 215.36 425.126 216.38 431.518 225.551C437.91 234.721 452 274.257 456.404 289.392C460.84 304.676 458.593 313.16 448.592 315.665C438.591 318.169 385.11 298.727 385.11 298.727L390.115 280.387C390.115 280.387 425.542 288.222 426.792 287.613L415.678 268.438C415.678 268.438 406.971 237.407 417.714 215.36Z" fill="#FFB4B5"/>
<path d="M378.807 184.059C378.807 184.059 385.986 186.402 386.574 189.039C387.163 191.676 386.28 195.491 382.763 198.415C379.247 201.339 371.726 199.548 369.677 197.935C367.629 196.322 366.048 189.467 368.113 185.676C370.178 181.885 378.807 184.059 378.807 184.059Z" fill="#473B1E"/>
<path d="M381.15 189.575C381.15 189.575 381.11 192.515 380.126 193.043C379.113 193.598 378.003 193.954 376.856 194.092C376.012 194.19 375.158 194.056 374.385 193.705C373.612 193.354 372.95 192.799 372.468 192.1C372.376 191.97 372.292 191.835 372.214 191.697C371.484 190.233 371.335 187.644 371.335 187.644C371.335 187.644 374.363 186.91 376.122 187.204C377.88 187.499 381.15 189.575 381.15 189.575Z" fill="#F7A491"/>
<path d="M452.517 108.358L448.298 107.648L445.826 111.241L441.152 110.112L439.701 114.753L434.357 113.709L432.494 117.818L427.191 117.653L427.252 115.645L431.216 115.77L433.184 111.435L438.322 112.439L439.798 107.716L444.955 108.967L447.371 105.454L451.283 106.111L452.383 103.474L454.238 104.248L452.517 108.358Z" fill="url(#paint13_linear)"/>
<path d="M690.924 145.91H513.18C510.009 145.91 507.438 148.481 507.438 151.652V173.263C507.438 176.435 510.009 179.006 513.18 179.006H690.924C694.095 179.006 696.666 176.435 696.666 173.263V151.652C696.666 148.481 694.095 145.91 690.924 145.91Z" fill="#FF7E82"/>
<path d="M90.3438 327.553C90.5227 328.258 90.7939 328.935 91.1503 329.569C93.4408 333.945 98.7559 340.187 98.7559 340.187L102.865 330.468C102.865 330.468 102.196 327.416 101.034 323.052C97.0501 324.157 93.2553 324.778 90.3438 327.553Z" fill="#F8A492"/>
<path d="M113.907 319.125C113.907 319.125 90.9852 329.484 90.2432 329.287C89.7674 329.162 80.8431 313.479 80.7463 298.731C80.702 291.92 87.4405 283.726 94.9614 285.347C98.7441 286.154 98.6876 287.267 104.285 295.808C109.882 304.349 113.907 319.125 113.907 319.125Z" fill="#FF9092"/>
<path d="M133.477 504.905C133.477 504.905 132.932 514.354 132.928 514.374C132.727 515.584 131.94 518.539 131.94 519.616C131.94 523.717 150.491 516.14 146.321 514.321C145.946 514.16 143.978 512.914 143.853 511.523C143.663 509.373 143.179 505.026 143.179 505.026L133.477 504.905Z" fill="#F7A491"/>
<path d="M146.277 514.297C146.277 514.297 141.926 515.551 139.696 515.862C137.466 516.172 134.53 513.539 132.953 514.249C131.219 515.031 131.284 522.092 131.284 522.092C131.284 522.092 154.621 524.109 161.186 522.024C163.783 521.205 155.173 517.217 146.277 514.297Z" fill="#002A24"/>
<path d="M95.5578 504.905C95.5578 504.905 95.0134 514.354 95.0094 514.374C94.8118 515.584 94.0254 518.539 94.0254 519.616C94.0254 523.717 112.576 516.14 108.406 514.321C108.027 514.16 105.474 511.986 105.353 510.591C105.16 508.446 105.26 505.026 105.26 505.026L95.5578 504.905Z" fill="#F7A491"/>
<path d="M108.357 514.297C108.357 514.297 104.006 515.551 101.78 515.862C99.5537 516.172 96.6098 513.539 95.0331 514.249C93.299 515.031 93.2305 522.092 93.2305 522.092C93.2305 522.092 116.672 524.435 123.266 522.024C125.826 521.092 117.253 517.217 108.357 514.297Z" fill="#002A24"/>
<path d="M101.224 332.791L117.548 308.785C117.616 308.575 117.766 308.144 117.991 307.486C118.798 305.103 120.524 300.147 122.024 295.215V295.162C122.496 293.441 123.488 290.432 124.444 287.525C125.512 284.299 126.835 280.266 126.863 279.596C126.823 279.479 126.746 279.27 126.646 278.992C126.045 277.378 125.238 273.475 124.952 271.785C124.766 270.708 124.585 268.095 125.803 268.095C127.718 268.095 126.807 270.708 127.69 272.338C128.257 270.554 128.709 268.736 129.041 266.894L129.36 261.788C129.424 261.385 129.033 258.59 130.376 258.59H130.44C131.65 258.683 131.618 261.675 132.122 266.74C132.279 266.156 132.436 265.454 132.557 264.809C132.628 263.909 132.763 263.016 132.961 262.135C132.719 260.728 132.86 258.506 134.291 258.711C135.009 258.816 134.949 261.937 134.949 261.937C134.949 262.365 134.9 265.647 134.921 266.297C135.07 265.196 135.642 260.494 136.767 260.494C137.695 260.494 137.772 261.76 137.751 262.76C137.751 263.353 137.155 268.442 137.122 269.035C137.562 268.265 138.082 263.792 138.514 263.792C140.332 263.792 139.675 270.172 139.01 271.834C138.923 272.126 138.853 272.424 138.8 272.725C138.531 274.378 138.006 275.979 137.243 277.471C136.106 279.516 134.533 282.77 134.291 283.27C134.118 284.286 133.57 287.944 132.884 292.545L131.932 298.905H131.912C131.852 299.389 131.509 300.921 130.218 306.696C128.452 314.596 128.271 314.935 128.202 315.08C127.436 316.507 109.833 341.599 109.087 342.667L108.644 343.296L101.224 332.791Z" fill="#F7A491"/>
<path d="M131.586 276.802C131.586 276.802 130.263 273.245 127.904 273.237C128.317 273.1 128.757 273.068 129.184 273.145C129.612 273.222 130.013 273.405 130.352 273.677C131.481 274.616 131.586 276.802 131.586 276.802Z" fill="#F47458"/>
<path d="M97.2875 269.926L95.1865 283.879C95.1865 283.879 103.191 290.63 107.861 289.206C111.777 287.996 109.091 282.637 109.091 282.637C109.091 282.637 107.002 275.189 107.643 271.285C108.285 267.381 97.2875 269.926 97.2875 269.926Z" fill="#F7A491"/>
<path d="M98.788 274.152C101.656 275.499 104.711 276.403 107.849 276.834C107.555 274.882 107.386 272.801 107.636 271.293C107.93 269.491 105.748 269.063 103.313 269.124C100.123 269.414 97.2636 269.93 97.2636 269.93L96.8604 272.612C97.4008 273.242 98.0546 273.764 98.788 274.152Z" fill="#FE875E"/>
<path d="M87.1739 253.836C86.8433 253.836 90.3396 269.422 95.7474 272.104C101.155 274.785 109.225 273.386 110.741 269.188C112.414 264.547 106.305 248.646 98.6993 246.605C91.0937 244.565 87.1739 253.836 87.1739 253.836Z" fill="#F7A491"/>
<path d="M93.4322 239.516C90.3333 241.423 87.8983 244.239 86.4597 247.581C84.4434 248.589 81.9794 250.775 80.814 256.663C79.3622 263.921 84.5119 269.487 89.9721 271.18C95.4324 272.874 96.2954 276.54 96.2954 276.54L96.9003 272.592C96.9003 272.592 95.6905 269.015 93.8556 267.236C92.0207 265.458 94.7186 262.865 94.9565 260.752C95.138 259.139 93.9967 255.965 94.2427 253.291C94.2427 253.291 97.2793 248.452 100.268 247.275C105.353 245.246 98.9771 236.157 93.4322 239.516Z" fill="#473B1E"/>
<path d="M95.7316 263.47C96.4414 265.268 96.1349 267.059 95.0864 267.462C94.0379 267.865 92.5902 266.736 91.8805 264.934C91.1707 263.131 91.4772 261.349 92.5257 260.941C93.5742 260.534 95.0259 261.671 95.7316 263.47Z" fill="#F7A491"/>
<path d="M115.883 333.178L147.374 327.787C147.374 327.787 143.793 318.318 142.51 318.318C141.228 318.318 118.718 328.646 118.718 328.646L116.923 332.42L115.883 333.178Z" fill="#F8A492"/>
<path d="M99.7561 355.842C99.7561 355.842 96.6147 371.783 97.8931 383.869C99.1714 395.955 99.2763 438.899 99.2763 438.899L94.3887 507.599L105.983 507.865C105.983 507.865 119.726 439.197 119.468 440.959C119.21 442.722 124.077 392.608 124.077 392.608L107.692 354.33L99.7561 355.842Z" fill="url(#paint14_linear)"/>
<path d="M102.292 355.181C102.292 355.181 100.244 369.533 102.805 375.828C105.365 382.123 124.766 443.899 125.02 448.932C125.275 453.965 131.727 509.66 131.727 509.66L145.204 509.256L148.12 447.363L142.014 369.573L136.09 349.906L102.292 355.181Z" fill="url(#paint15_linear)"/>
<path d="M95.1787 283.879C95.1787 283.879 98.5016 286.17 101.599 285.895C104.696 285.621 109.083 282.629 109.083 282.629L108.474 280.459C108.474 280.459 100.453 279.25 100.252 279.367C100.05 279.483 95.1787 283.879 95.1787 283.879Z" fill="#F7A491"/>
<path d="M130.598 317.85C130.598 317.85 142.51 329.65 147.886 327.638C153.261 325.625 155.487 318.737 142.369 308.66C130.63 299.643 130.598 317.85 130.598 317.85Z" fill="#F8A492"/>
<path d="M138.671 332.42C136.9 322.314 124.077 290.884 123.052 285.077C122.556 282.254 115.636 282.198 109.051 282.569C102.091 282.972 95.1785 283.879 95.1785 283.879C95.1785 283.879 89.0166 284.94 86.3067 287.609C83.5967 290.279 82.8749 297.647 86.7704 311.644C89.8473 322.693 93.6582 328.763 95.5455 336.808C95.9286 339.51 96.2552 342.171 96.6908 345.276C97.3844 357.31 96.6908 373.211 96.6908 373.211C96.6908 373.211 130.23 380.514 142.776 369.432C142.768 369.44 140.481 342.776 138.671 332.42Z" fill="#FA5457"/>
<path d="M147.22 310.692C147.22 310.692 134.062 322.097 133.296 322.097C132.8 322.097 114.516 307.982 110.309 296.376C107.975 289.964 112.87 282.786 118.459 282.81C122.335 282.81 124.057 283.875 131.739 290.674C139.421 297.473 147.22 310.692 147.22 310.692Z" fill="#FF9092"/>
<path d="M554.886 48.1702C556.632 39.633 552.615 31.1685 544.937 28.0069C544.996 23.1442 543.139 18.4538 539.767 14.9491C533.242 8.38797 519.802 5.54898 515.003 13.9127C508.667 17.5098 509.067 21.978 510.97 29.0674C504.828 35.4471 507.071 45.8917 516.027 51.3439C515.886 58.5059 515.7 69.3013 521.939 72.358C523.439 73.092 525.782 74.1163 526.076 74.4349C525.673 74.0639 530.702 88.0653 546.276 81.6574C562.153 75.1003 565.246 56.6952 554.886 48.1702Z" fill="url(#paint16_linear)"/>
<path d="M488.859 105.781C490.109 104.547 492.311 103.454 492.182 103.272C491.662 102.534 486.222 108.16 486.58 106.575C486.778 105.696 490.67 101.099 492.053 100.929C493.436 100.76 502.066 99.393 502.066 99.393L522.112 86.0852C522.112 86.0852 523.104 70.3296 518.85 59.7116C523.499 58.2962 524.407 57.9897 529.19 58.3607C531.916 69.1279 534.835 87.2668 531.307 92.5496C529.819 94.7756 503.764 103.373 503.764 103.373C503.764 103.373 498.118 105.494 497.077 105.563C496.271 105.611 494.085 105.43 493.013 105.595C490.593 105.974 487.564 109.596 487.367 109.176C487.202 108.858 487.581 107.039 488.859 105.781Z" fill="#F48C7F"/>
<path d="M516.407 58.4373C517.572 56.2902 518.848 54.2052 520.23 52.1907C522.181 48.7065 527.226 46.9482 527.226 46.9482C527.226 46.9482 528.916 46.9805 530.856 47.0773C530.923 47.3193 531.049 47.5409 531.223 47.7225C531.948 48.271 536.122 47.5612 538.816 49.4001C547.853 57.171 545.353 94.832 544.643 106.728L522.089 106.825C522.089 106.825 520.597 81.3912 515.007 74.818C511.112 70.2369 513.616 63.6031 516.407 58.4373Z" fill="#F6D51F"/>
<path d="M510.232 190.942C509.99 190.495 506.856 182.934 504.296 179.566C500.578 174.679 468.405 130.4 469.748 119.625C470.325 114.919 484.265 110.93 485.911 110.648C494.783 111.834 485.463 119.468 492.125 125.742C487.794 127.222 485.241 129.073 486.177 130.291C489.923 135.167 509.824 174.449 510.692 174.953C514.543 177.215 516.055 176.163 516.055 176.163C516.055 176.163 515.168 198.258 513.329 197.56C511.49 196.862 512.954 195.963 510.232 190.942Z" fill="#F79C8D"/>
<path d="M517.676 176.304L513.958 198.564C513.119 201.448 511.716 201.415 511.357 201.028C510.615 200.222 510.276 194.29 510.184 190.91C511.861 185.756 511.704 176.05 510.667 174.953C513.196 174.997 517.672 175.812 517.676 176.304Z" fill="url(#paint17_linear)"/>
<path d="M504.385 121.766C499.392 113.491 499.663 114.54 490.98 110.801C487.5 112.201 475.854 119.496 474.382 120.847L492.892 134.28C492.295 132.775 498.743 125.319 504.385 121.766Z" fill="#F7A491"/>
<path d="M528.81 34.2091C528.81 34.2091 530.323 45.0488 531.379 47.6822C532.436 50.3155 525.572 55.9451 519.858 57.6549C514.144 59.3648 521.604 51.8398 521.366 49.025C521.128 46.2103 520.092 32.8944 520.092 32.8944L528.81 34.2091Z" fill="#F7A491"/>
<path d="M520.382 36.6972C520.213 34.4914 520.092 32.8743 520.092 32.8743L528.81 34.205C528.81 34.205 529.028 35.4794 529.274 37.2779C525.738 39.3346 522.56 38.6853 520.382 36.6972Z" fill="#F47458"/>
<path d="M526.076 14.4127C528.351 15.0497 530.322 16.4803 531.633 18.4454C533.754 21.6715 535.21 31.2571 528.221 35.7213C521.233 40.1854 515.801 33.8703 515.72 27.7084C515.64 21.5465 516.938 13.3239 526.076 14.4127Z" fill="#F7A491"/>
<path d="M514.111 25.7768C514.708 27.2608 515.89 28.1964 516.753 27.8335C517.616 27.4705 517.834 25.9986 517.237 24.5146C516.64 23.0306 515.458 22.095 514.595 22.4539C513.732 22.8128 513.519 24.2887 514.111 25.7768Z" fill="#F7A491"/>
<path d="M531.746 26.9947C531.238 28.6077 531.702 30.1724 532.783 30.5192C533.863 30.866 535.146 29.8417 535.65 28.2407C536.154 26.6398 535.694 25.063 534.617 24.7202C533.541 24.3775 532.25 25.3937 531.746 26.9947Z" fill="#F7A491"/>
<path d="M505.393 107.458C509.252 107.103 522.019 105.809 522.019 105.809L544.667 102.764C544.667 102.764 548.671 112.326 548.828 118.326C549.103 128.811 540.162 136.215 531.891 135.711C526.971 135.409 501.134 135.03 492.98 135.09C491.855 126.541 490.56 116.415 484.802 110.261C494.053 108.995 500.15 107.938 505.393 107.458Z" fill="#473B1E"/>
<path d="M505.115 186.644C504.494 186.002 499.521 152.015 496.525 137.748C496.169 136.05 495.45 134.45 494.416 133.058C493.382 131.665 492.059 130.514 490.537 129.682L474.382 120.867C468.784 125.964 494.908 183.458 497.291 189.467C498.937 193.616 499.969 202.19 500.09 202.71C501.433 208.585 499.687 209.085 501.356 210.319C503.026 211.553 510.518 190.092 510.518 190.092C510.518 190.092 508.389 190.019 505.115 186.644Z" fill="#F7A491"/>
<path d="M509.978 108.938C509.95 109.376 509.75 109.785 509.421 110.076C509.092 110.367 508.662 110.516 508.224 110.491L480.802 110.555C479.83 110.555 478.854 109.717 478.535 108.676L479.035 109.011C479.064 108.573 479.265 108.163 479.595 107.873C479.924 107.582 480.355 107.433 480.793 107.458L508.216 107.39C508.654 107.363 509.085 107.511 509.416 107.801C509.746 108.091 509.948 108.5 509.978 108.938Z" fill="url(#paint18_linear)"/>
<path d="M481.06 109.995C481.224 109.995 481.388 109.986 481.552 109.967C482.971 109.785 483.903 108.878 483.632 107.95L473.148 71.7128C472.877 70.7732 471.506 70.1562 470.083 70.3377C468.659 70.5192 467.732 71.4225 468.002 72.354L478.487 108.592C478.729 109.418 479.826 109.995 481.06 109.995Z" fill="url(#paint19_linear)"/>
<path d="M489.141 105.083C490.71 104.301 493.142 103.942 493.077 103.728C492.807 102.869 485.818 107.317 486.661 105.922C487.121 105.144 492.307 101.196 493.678 101.462C495.049 101.728 503.675 103.103 503.675 103.103L525.992 95.0377C525.992 95.0377 530.246 81.1573 529.492 69.7489C534.356 69.8417 537.751 70.6482 542.183 72.483C541.441 83.5648 538.61 101.716 533.601 105.644C531.496 107.297 504.058 107.398 504.058 107.398C504.058 107.398 498.041 107.672 497.025 107.398C496.251 107.2 494.202 106.345 493.15 106.188C490.73 105.785 486.73 108.301 486.661 107.841C486.613 107.499 487.536 105.886 489.141 105.083Z" fill="#F7A491"/>
<path d="M527.94 57.6429C528.254 54.1345 528.682 50.6019 532.255 49.0856C533.373 48.6438 534.581 48.4762 535.777 48.5969C536.973 48.7176 538.123 49.123 539.13 49.7792C541.518 51.3156 542.461 54.1103 542.76 56.8242C543.516 63.0609 543.717 69.3523 543.361 75.6245C538.925 73.7937 532.904 74.7615 528.037 74.6728C526.968 69.2408 527.537 62.2119 527.94 57.6429Z" fill="#ECC800"/>
<path d="M492.456 101.772C488.641 102.748 488.855 102.68 488.702 102.776C486.008 104.474 486.222 105.196 490.355 103.434C490.46 103.39 490.572 103.368 490.686 103.369L492.65 103.389C492.821 103.4 492.991 103.356 493.135 103.263C493.279 103.17 493.39 103.034 493.452 102.874C493.514 102.714 493.523 102.538 493.478 102.373C493.433 102.207 493.336 102.061 493.202 101.954C493.103 101.864 492.982 101.8 492.852 101.769C492.722 101.737 492.586 101.738 492.456 101.772Z" fill="#F7A491"/>
<path d="M499.925 201.472C499.925 201.472 500.086 204.166 499.179 206.311C498.272 208.456 494.812 209.287 495.646 210.4C496.481 211.513 503.175 210.4 503.175 210.4L510.918 191.447C511.073 191.104 511.113 190.722 511.033 190.355C510.954 189.988 510.758 189.657 510.475 189.41C508.92 188.112 507.104 187.164 505.151 186.627C505.151 186.627 505.571 198.544 499.925 201.472Z" fill="url(#paint20_linear)"/>
<path d="M665.731 192.16C665.731 193.038 665.471 193.895 664.984 194.625C664.496 195.354 663.803 195.923 662.993 196.259C662.182 196.594 661.29 196.682 660.43 196.511C659.569 196.34 658.779 195.917 658.159 195.297C657.538 194.677 657.116 193.886 656.945 193.026C656.773 192.165 656.861 191.273 657.197 190.463C657.533 189.652 658.101 188.959 658.831 188.472C659.56 187.985 660.418 187.724 661.295 187.724C662.472 187.724 663.6 188.192 664.432 189.024C665.264 189.856 665.731 190.984 665.731 192.16Z" fill="#FF7377"/>
<path d="M679.334 192.16C679.334 193.038 679.074 193.895 678.586 194.625C678.099 195.354 677.406 195.923 676.595 196.259C675.785 196.594 674.893 196.682 674.032 196.511C673.172 196.34 672.382 195.917 671.761 195.297C671.141 194.677 670.718 193.886 670.547 193.026C670.376 192.165 670.464 191.273 670.8 190.463C671.135 189.652 671.704 188.959 672.433 188.472C673.163 187.985 674.02 187.724 674.898 187.724C676.074 187.724 677.203 188.192 678.034 189.024C678.866 189.856 679.334 190.984 679.334 192.16Z" fill="#FF7377"/>
<path d="M692.484 192.16C692.484 193.038 692.224 193.895 691.737 194.625C691.249 195.354 690.556 195.923 689.746 196.259C688.935 196.594 688.043 196.682 687.183 196.511C686.322 196.34 685.532 195.917 684.912 195.297C684.291 194.677 683.869 193.886 683.698 193.026C683.526 192.165 683.614 191.273 683.95 190.463C684.286 189.652 684.854 188.959 685.584 188.472C686.313 187.985 687.171 187.724 688.048 187.724C689.225 187.724 690.353 188.192 691.185 189.024C692.017 189.856 692.484 190.984 692.484 192.16Z" fill="#FF7377"/>
<path d="M685.471 162.448C685.471 164.921 684.738 167.339 683.364 169.395C681.99 171.452 680.037 173.055 677.752 174.001C675.467 174.948 672.952 175.195 670.527 174.713C668.101 174.23 665.873 173.039 664.124 171.29C662.375 169.541 661.184 167.313 660.701 164.887C660.219 162.462 660.466 159.947 661.413 157.662C662.359 155.377 663.962 153.424 666.019 152.05C668.075 150.676 670.493 149.942 672.966 149.942C676.283 149.942 679.464 151.26 681.809 153.605C684.154 155.95 685.471 159.131 685.471 162.448Z" fill="#FFA8AA"/>
<path d="M417.659 449.767H320.25V460.348H417.659V449.767Z" fill="url(#paint21_linear)"/>
<path d="M656.315 311.16C663.417 310.757 667.457 319.298 662.658 324.589C661.803 325.547 661.321 326.781 661.299 328.065L661.195 332.477C661.181 333.063 660.947 333.623 660.539 334.045C660.131 334.467 659.579 334.719 658.993 334.751L656.303 334.904C655.721 334.932 655.149 334.74 654.701 334.367C654.253 333.993 653.961 333.466 653.883 332.888C653.278 328.488 653.375 326.839 651.54 325.226C646.161 320.5 649.214 311.559 656.315 311.16Z" fill="#FFB259"/>
<path d="M659.312 329.63C658.957 326.065 658.703 322.125 658.655 320.649C657.342 320.815 656.011 320.737 654.727 320.419C655.166 323.359 655.533 326.339 655.82 329.291L655.416 329.327C655.126 326.331 654.751 323.302 654.303 320.318C653.529 320.092 652.626 319.786 652.202 319.108C652.103 318.947 652.036 318.767 652.008 318.579C651.98 318.391 651.99 318.199 652.037 318.016C652.299 317.056 653.473 317.044 654.053 317.842C654.457 318.366 654.501 319.08 654.642 320.004C655.941 320.347 657.294 320.435 658.626 320.262C658.583 319.543 658.762 318.827 659.139 318.213C660.574 316.124 662.99 319.931 659.014 320.592C659.05 321.746 659.292 325.791 659.671 329.589L659.312 329.63ZM659.473 318.435C659.152 318.967 658.997 319.584 659.03 320.205C659.893 320.056 660.441 319.762 660.703 319.306C661.151 318.544 660.248 317.302 659.473 318.435ZM652.735 317.705C652.331 317.907 652.303 318.512 652.545 318.915C652.884 319.455 653.626 319.721 654.259 319.903C654.146 319.169 654.09 318.524 653.763 318.08C653.537 317.762 652.779 317.705 652.735 317.705Z" fill="#D77300"/>
<path d="M661.308 327.956C661.308 327.992 661.308 328.029 661.308 328.065L661.203 332.477C661.19 333.063 660.955 333.623 660.547 334.045C660.139 334.467 659.587 334.719 659.001 334.751L656.311 334.904C655.729 334.932 655.157 334.74 654.709 334.367C654.261 333.993 653.97 333.466 653.892 332.888C653.621 330.932 653.488 329.517 653.267 328.404L661.308 327.956Z" fill="#D77300"/>
<path d="M660.695 306.906L661.904 302.708C661.937 302.609 661.949 302.506 661.94 302.403C661.932 302.3 661.902 302.199 661.853 302.108C661.804 302.017 661.737 301.937 661.657 301.872C661.576 301.808 661.483 301.76 661.383 301.733C661.283 301.705 661.179 301.698 661.076 301.713C660.974 301.727 660.875 301.762 660.787 301.815C660.698 301.869 660.622 301.94 660.561 302.024C660.501 302.108 660.459 302.203 660.436 302.304L659.227 306.498C659.185 306.688 659.217 306.886 659.316 307.053C659.416 307.22 659.575 307.343 659.761 307.398C659.947 307.452 660.148 307.433 660.321 307.346C660.494 307.258 660.628 307.108 660.695 306.926V306.906Z" fill="#FFDAAF"/>
<path d="M667.191 314.951L671.566 313.564C671.751 313.495 671.902 313.359 671.988 313.182C672.075 313.005 672.09 312.802 672.031 312.615C671.972 312.427 671.843 312.27 671.671 312.175C671.499 312.079 671.297 312.054 671.107 312.104L666.727 313.491C666.629 313.519 666.537 313.567 666.457 313.631C666.377 313.695 666.311 313.775 666.262 313.865C666.214 313.956 666.184 314.055 666.174 314.157C666.165 314.259 666.176 314.362 666.207 314.46C666.238 314.558 666.288 314.648 666.355 314.726C666.422 314.804 666.503 314.868 666.595 314.913C666.687 314.959 666.787 314.986 666.889 314.993C666.992 314.999 667.094 314.985 667.191 314.951Z" fill="#FFDAAF"/>
<path d="M674.672 327.65C674.779 327.478 674.813 327.271 674.768 327.074C674.723 326.876 674.601 326.705 674.43 326.597C673.087 325.755 671.667 325.043 670.188 324.472C670.001 324.409 669.797 324.421 669.619 324.505C669.441 324.589 669.301 324.738 669.23 324.922C669.159 325.106 669.162 325.31 669.237 325.492C669.312 325.674 669.455 325.82 669.635 325.899C671.022 326.435 672.355 327.103 673.616 327.892C673.701 327.946 673.796 327.982 673.895 327.999C673.994 328.016 674.096 328.014 674.194 327.991C674.293 327.969 674.385 327.927 674.467 327.868C674.549 327.81 674.619 327.735 674.672 327.65Z" fill="#FFDAAF"/>
<path d="M649.621 309.164C649.71 309.118 649.789 309.054 649.854 308.977C649.918 308.9 649.967 308.811 649.997 308.715C650.027 308.619 650.037 308.518 650.028 308.418C650.019 308.318 649.99 308.22 649.943 308.132C649.014 306.347 648.272 304.471 647.729 302.534C647.667 302.348 647.536 302.193 647.364 302.101C647.191 302.009 646.99 301.986 646.801 302.038C646.612 302.089 646.45 302.211 646.348 302.379C646.246 302.546 646.212 302.746 646.253 302.937C646.826 304.975 647.608 306.949 648.588 308.825C648.633 308.916 648.696 308.996 648.772 309.063C648.849 309.129 648.937 309.179 649.033 309.211C649.13 309.242 649.231 309.254 649.332 309.246C649.433 309.238 649.531 309.21 649.621 309.164Z" fill="#FFDAAF"/>
<path d="M646.302 315.927C646.313 315.726 646.245 315.529 646.112 315.378C645.98 315.227 645.793 315.135 645.592 315.12L640.64 314.757C640.447 314.757 640.26 314.83 640.118 314.961C639.975 315.093 639.888 315.274 639.874 315.467C639.86 315.66 639.919 315.852 640.041 316.003C640.162 316.154 640.336 316.254 640.527 316.282L645.484 316.649C645.585 316.655 645.686 316.642 645.782 316.609C645.878 316.576 645.967 316.525 646.043 316.458C646.119 316.391 646.181 316.309 646.225 316.218C646.27 316.127 646.296 316.028 646.302 315.927Z" fill="#FFDAAF"/>
<path d="M641.43 329.98C641.499 329.964 641.565 329.94 641.628 329.908C643.138 329.096 644.556 328.124 645.858 327.008C646.001 326.874 646.087 326.689 646.098 326.493C646.109 326.297 646.044 326.104 645.917 325.954C645.789 325.804 645.609 325.709 645.414 325.689C645.218 325.668 645.022 325.723 644.866 325.843C643.646 326.887 642.317 327.796 640.902 328.557C640.739 328.644 640.613 328.788 640.547 328.961C640.481 329.134 640.48 329.326 640.545 329.499C640.609 329.673 640.735 329.817 640.897 329.906C641.06 329.994 641.25 330.021 641.43 329.98Z" fill="#FFDAAF"/>
<path d="M217.607 314.981C227.641 311.931 236.403 322.761 231.369 332.012C230.48 333.682 230.221 335.617 230.638 337.463L232.029 343.843C232.215 344.689 232.074 345.573 231.637 346.32C231.199 347.067 230.496 347.622 229.668 347.874L225.866 349.024C225.038 349.275 224.145 349.204 223.366 348.827C222.587 348.449 221.979 347.792 221.663 346.986C219.265 340.893 218.83 338.497 215.646 336.823C206.311 331.896 207.574 318.031 217.607 314.981Z" fill="#EDFDFC"/>
<path d="M228.33 340.404C226.579 335.415 224.845 329.864 224.262 327.767C222.439 328.459 220.505 328.81 218.555 328.805C220.207 332.858 221.77 336.999 223.209 341.134L222.68 341.324C221.214 337.128 219.628 332.919 217.942 328.801C216.754 328.747 215.361 328.626 214.511 327.799C214.312 327.602 214.156 327.366 214.051 327.107C213.945 326.847 213.894 326.569 213.9 326.289C213.941 324.823 215.614 324.404 216.728 325.339C217.489 325.955 217.806 326.955 218.331 328.235C220.311 328.27 222.279 327.923 224.127 327.212C223.813 326.198 223.819 325.112 224.142 324.1C225.473 320.614 230.257 325.221 224.797 327.551C225.245 329.192 227.005 334.901 228.87 340.212L228.33 340.404ZM224.663 324.304C224.387 325.181 224.383 326.12 224.651 326.999C225.828 326.481 226.511 325.868 226.734 325.123C227.105 323.882 225.38 322.423 224.663 324.304ZM214.763 325.614C214.256 326.044 214.426 326.92 214.907 327.415C215.586 328.07 216.742 328.193 217.706 328.234C217.295 327.22 216.984 326.317 216.367 325.794C215.871 325.544 215.302 325.48 214.763 325.614Z" fill="url(#paint22_linear)"/>
<path d="M230.605 337.306C230.618 337.358 230.631 337.41 230.643 337.462L232.029 343.843C232.214 344.689 232.074 345.573 231.636 346.32C231.199 347.067 230.496 347.622 229.667 347.874L225.866 349.024C225.037 349.275 224.145 349.204 223.366 348.827C222.587 348.449 221.979 347.792 221.663 346.986C220.601 344.276 219.912 342.296 219.214 340.783L230.605 337.306Z" fill="url(#paint23_linear)"/>
<path d="M222.406 307.36L222.68 300.931C222.693 300.631 222.587 300.339 222.384 300.118C222.182 299.897 221.9 299.765 221.601 299.752C221.302 299.739 221.009 299.845 220.788 300.047C220.567 300.25 220.435 300.531 220.422 300.831L220.15 307.266C220.168 307.547 220.289 307.812 220.492 308.008C220.694 308.205 220.963 308.318 221.245 308.326C221.527 308.334 221.801 308.237 222.015 308.053C222.229 307.869 222.366 307.611 222.399 307.331L222.406 307.36Z" fill="#EDFDFC"/>
<path d="M234.509 316.626L240.3 313.114C240.426 313.037 240.536 312.936 240.624 312.817C240.711 312.698 240.774 312.562 240.809 312.418C240.844 312.275 240.85 312.126 240.827 311.979C240.805 311.833 240.753 311.693 240.677 311.567C240.6 311.44 240.499 311.33 240.379 311.243C240.26 311.156 240.124 311.093 239.981 311.058C239.837 311.023 239.688 311.017 239.542 311.039C239.395 311.062 239.255 311.113 239.129 311.19L233.342 314.695C233.102 314.857 232.933 315.105 232.87 315.388C232.808 315.671 232.857 315.967 233.007 316.215C233.157 316.463 233.396 316.644 233.676 316.721C233.955 316.797 234.253 316.763 234.509 316.626Z" fill="#EDFDFC"/>
<path d="M249.63 332.225C249.677 332.084 249.695 331.936 249.685 331.788C249.674 331.64 249.635 331.495 249.569 331.362C249.502 331.23 249.41 331.111 249.298 331.014C249.186 330.917 249.056 330.842 248.915 330.796C246.7 330.057 244.419 329.532 242.104 329.226C241.955 329.204 241.804 329.211 241.659 329.248C241.513 329.284 241.377 329.35 241.257 329.44C241.137 329.53 241.036 329.643 240.96 329.772C240.884 329.901 240.835 330.044 240.815 330.193C240.795 330.342 240.805 330.493 240.844 330.637C240.883 330.782 240.951 330.918 241.043 331.036C241.135 331.154 241.249 331.253 241.38 331.327C241.51 331.401 241.654 331.448 241.803 331.465C243.981 331.758 246.126 332.262 248.207 332.968C248.494 333.058 248.806 333.03 249.072 332.891C249.339 332.752 249.539 332.512 249.63 332.225Z" fill="#EDFDFC"/>
<path d="M207.322 314.451C207.548 314.254 207.686 313.976 207.706 313.677C207.726 313.379 207.627 313.084 207.431 312.859C205.475 310.627 203.758 308.199 202.305 305.612C202.147 305.378 201.907 305.213 201.633 305.147C201.358 305.082 201.07 305.121 200.823 305.258C200.576 305.394 200.39 305.618 200.3 305.885C200.21 306.153 200.223 306.444 200.337 306.702C201.864 309.423 203.67 311.977 205.725 314.325C205.822 314.439 205.94 314.532 206.072 314.6C206.205 314.668 206.349 314.709 206.498 314.72C206.646 314.732 206.795 314.714 206.937 314.668C207.078 314.622 207.209 314.548 207.322 314.451Z" fill="#EDFDFC"/>
<path d="M204.922 325.301C204.869 325.011 204.704 324.753 204.462 324.583C204.221 324.413 203.922 324.344 203.631 324.391L196.41 325.595C196.114 325.644 195.85 325.808 195.676 326.052C195.502 326.296 195.431 326.599 195.481 326.894C195.53 327.19 195.694 327.454 195.938 327.628C196.182 327.803 196.485 327.873 196.78 327.824L204.001 326.62C204.149 326.596 204.291 326.542 204.417 326.462C204.544 326.382 204.654 326.278 204.74 326.155C204.826 326.032 204.886 325.893 204.917 325.746C204.949 325.6 204.951 325.448 204.922 325.301Z" fill="#EDFDFC"/>
<path d="M202.84 347.123C202.931 347.077 203.015 347.019 203.092 346.952C204.973 345.262 206.669 343.375 208.149 341.324C208.324 341.081 208.396 340.779 208.348 340.483C208.301 340.187 208.137 339.922 207.894 339.746C207.651 339.571 207.348 339.499 207.053 339.547C206.757 339.595 206.492 339.758 206.316 340.001C204.931 341.923 203.344 343.691 201.583 345.275C201.384 345.459 201.257 345.708 201.226 345.977C201.195 346.246 201.261 346.518 201.414 346.742C201.566 346.966 201.794 347.128 202.056 347.198C202.318 347.268 202.596 347.241 202.84 347.123Z" fill="#EDFDFC"/>
<path d="M712.511 539.88C712.914 539.304 712.297 538.638 711.341 538.638H561.092C549.317 538.638 539.768 545.038 539.768 552.934C539.768 560.83 549.317 567.23 561.092 567.23H711.385C712.341 567.23 712.97 566.556 712.555 565.976C706.623 557.713 706.623 548.107 712.511 539.88Z" fill="#F6D51F"/>
<path d="M711.312 541.715H610.496C603.048 541.715 597.015 546.619 597.015 552.668V553.474C597.015 559.523 603.064 564.427 610.496 564.427H711.522C707.026 557.16 706.961 548.994 711.312 541.715Z" fill="#EDFDFC"/>
<path d="M563.995 537.368H642.769C649.754 537.368 655.416 531.263 655.416 523.73C655.416 516.197 649.77 510.091 642.769 510.091H563.995C570.016 517.652 570.254 528.742 564.56 536.594L563.995 537.368Z" fill="#EDFDFC"/>
<path d="M654.38 523.73C654.38 516.197 648.649 510.091 641.584 510.091H562.544C562.453 510.088 562.365 510.067 562.282 510.029C562.2 509.992 562.126 509.938 562.065 509.872C562.003 509.806 561.955 509.728 561.924 509.643C561.893 509.558 561.879 509.468 561.882 509.377C561.878 509.197 561.945 509.022 562.069 508.891C562.193 508.759 562.363 508.682 562.544 508.676H687.899C695.698 508.676 702.013 515.414 702.013 523.73C702.013 532.041 695.694 538.779 687.899 538.779H562.564C562.384 538.774 562.213 538.698 562.089 538.567C561.965 538.436 561.898 538.262 561.903 538.082C561.899 537.991 561.913 537.901 561.944 537.816C561.975 537.731 562.023 537.654 562.085 537.587C562.146 537.521 562.22 537.467 562.302 537.43C562.385 537.392 562.474 537.371 562.564 537.368H641.604C648.649 537.368 654.38 531.263 654.38 523.73Z" fill="url(#paint24_linear)"/>
<path d="M584.72 507.264H663.474C670.458 507.264 676.12 501.155 676.12 493.626C676.12 486.093 670.474 479.983 663.474 479.983H584.72C590.74 487.545 590.974 498.638 585.28 506.486L584.72 507.264Z" fill="#EDFDFC"/>
<path d="M675.099 493.626C675.099 486.093 669.373 479.983 662.308 479.983H583.267C583.177 479.98 583.088 479.959 583.006 479.922C582.924 479.884 582.85 479.83 582.788 479.764C582.727 479.698 582.679 479.62 582.648 479.535C582.616 479.45 582.602 479.36 582.606 479.269C582.602 479.089 582.669 478.915 582.793 478.784C582.917 478.653 583.087 478.577 583.267 478.572H708.639C716.438 478.572 722.753 485.31 722.753 493.626C722.753 501.937 716.43 508.676 708.639 508.676H583.284C583.104 508.67 582.933 508.594 582.809 508.463C582.685 508.333 582.618 508.158 582.622 507.978C582.618 507.888 582.633 507.797 582.664 507.712C582.695 507.628 582.743 507.55 582.804 507.483C582.866 507.417 582.94 507.363 583.022 507.326C583.104 507.288 583.193 507.267 583.284 507.264H662.324C669.373 507.264 675.099 501.155 675.099 493.626Z" fill="url(#paint25_linear)"/>
<path d="M659.961 553.168H651.533C649.718 553.168 648.25 553.733 648.25 554.426V554.535H659.945L659.961 553.168Z" fill="url(#paint26_linear)"/>
<path d="M667.151 556.317C667.151 554.579 664.95 553.168 662.236 553.168H651.416C653.477 553.168 655.146 554.237 655.146 555.555L655.098 589.313L661.074 584.974L667.164 589.313L667.151 556.317Z" fill="url(#paint27_linear)"/>
<path d="M588.397 472.845L595.579 471.168C599.351 471.353 603.131 471.107 606.847 470.434C606.847 470.434 607.391 471.878 607.629 474.87C607.669 475.386 606.931 477.947 606.419 478.027C604.572 478.31 601.318 477.987 595.531 478.12C595.531 478.12 586.437 479.197 581.574 477.592C576.711 475.987 588.397 472.845 588.397 472.845Z" fill="#002A24"/>
<path d="M667.776 355.245C668.179 359.415 671.675 360.891 674.938 363.524C677.128 365.294 676.749 370.081 675.075 373.053C670.837 380.582 674.446 381.522 677.866 387.039C686.1 400.346 660.586 403.298 657.561 404.29C654.537 405.282 652.48 406.484 650.706 406.286C645.306 405.69 640.37 398.015 637.628 390.922C634.885 383.829 641.539 383.449 641.882 379.372C642.225 375.295 634.434 374.424 636.745 366.726C639.241 358.399 642.765 351.337 647.447 348.809C655.194 344.619 664.61 348.998 666.752 352.366C667.317 353.23 667.668 354.217 667.776 355.245Z" fill="#473B1E"/>
<path d="M668.373 446.411C669.042 448.077 672.736 453.985 672.736 453.985L620.929 454.501L620.122 443.871C634.345 443.758 648.403 437.467 661.509 432.983C661.86 433.773 668.05 445.601 668.373 446.411Z" fill="#FAE0B2"/>
<path d="M631.647 405.645C631.647 405.645 634.43 386.006 638.906 383.966C643.382 381.925 667.611 384.772 671.236 386.97C674.861 389.168 668.816 412.247 667.897 418.699C667.84 419.102 667.78 419.469 667.719 419.856C666.174 429.146 667.083 438.678 670.357 447.508C657.097 451.541 653.658 453.747 639.438 453.352L634.131 422.3C634.131 422.3 629.909 407.262 631.647 405.645Z" fill="#01B4BC"/>
<path d="M658.15 371.045C658.15 371.045 659.263 381.857 660.218 384.506C661.174 387.155 657.658 392.571 651.927 394.047C646.197 395.523 650.367 388.285 650.234 385.482C650.1 382.679 649.544 369.412 649.544 369.412L658.15 371.045Z" fill="#F7A491"/>
<path d="M658.283 372.287C657.529 373.142 656.644 373.872 655.662 374.449C653.496 375.723 651.516 376.005 649.802 375.61C649.661 372.267 649.544 369.412 649.544 369.412L658.15 371.025C658.15 371.025 658.198 371.517 658.283 372.287Z" fill="#F47458"/>
<path d="M656.141 351.297C658.376 352.008 660.281 353.496 661.513 355.491C663.505 358.79 664.606 368.335 657.513 372.517C650.419 376.699 645.249 370.239 645.378 364.121C645.507 358.003 647.108 349.89 656.141 351.297Z" fill="#F7A491"/>
<path d="M643.226 361.556C643.302 363.145 644.117 364.379 645.04 364.347C645.964 364.315 646.653 362.976 646.569 361.387C646.484 359.798 645.677 358.564 644.758 358.596C643.838 358.628 643.149 359.967 643.226 361.556Z" fill="#F7A491"/>
<path d="M661.32 363.992C660.759 365.561 661.163 367.145 662.223 367.525C663.284 367.904 664.59 366.936 665.151 365.367C665.712 363.798 665.308 362.213 664.252 361.834C663.195 361.455 661.881 362.419 661.32 363.992Z" fill="#F7A491"/>
<path d="M671.236 386.97C671.236 386.97 667.107 389.136 664.574 395.185C662.042 401.234 670.667 432.091 672.506 434.067C674.345 436.043 679.438 436.354 680.305 431.523C681.172 426.692 678.249 388.494 671.236 386.97Z" fill="#ECFEFF"/>
<path d="M646.536 382.836L653.662 425.619L625.929 430.091L617.098 390.071C617.098 390.071 639.931 380.832 646.536 382.836Z" fill="#9BC1F9"/>
<path d="M593.003 384.159C595.652 383.115 598.544 382.851 601.338 383.397C606.528 384.409 614.775 386.514 618.086 390.071C623.087 395.443 627.708 430.966 627.708 430.966L606.153 426.127L593.003 384.155V384.159Z" fill="#9BC1F9"/>
<path d="M667.163 457.34C663.534 447.258 622.461 410.626 611.589 413.444L617.428 435.797C617.428 435.797 629.526 472.495 641.592 476.874C653.658 481.254 664.747 476.269 664.747 476.269C664.747 476.269 670.788 467.409 667.163 457.34Z" fill="#473B1E"/>
<path d="M652.415 398.544C651.903 399.568 655.17 401.391 656.117 402.084C657.065 402.778 661.005 402.084 661.005 402.084C661.005 402.084 652.988 397.406 652.415 398.544Z" fill="#F7A491"/>
<path d="M617.32 446.444C617.32 446.444 606.883 468.135 606.835 470.394C606.786 473.644 591.745 472.753 595.011 471.361C595.761 471.043 598.128 469.841 598.31 469.688C599.282 468.849 607.948 441.911 607.948 441.911L617.32 446.444Z" fill="#F48C7F"/>
<path d="M620.65 420.493C620.146 419.937 614.856 417.836 610.783 422.913C606.71 427.99 598.902 467.482 598.902 467.482L608.5 468.422C608.5 468.422 632.394 433.442 620.65 420.493Z" fill="#473B1E"/>
<path d="M589.599 390.878L601.947 426.877C602.179 427.577 602.6 428.199 603.164 428.674C603.727 429.148 604.412 429.458 605.141 429.567C616.718 431.204 622.759 432.039 622.759 432.039C622.759 432.039 625.018 432.156 627.413 432.188L653.912 429.365C654.467 429.295 655.001 429.112 655.482 428.826C655.963 428.54 656.38 428.158 656.707 427.704C657.034 427.25 657.264 426.734 657.382 426.187C657.501 425.64 657.505 425.075 657.396 424.526L650.944 389.176C650.773 388.143 650.202 387.22 649.355 386.605C648.508 385.991 647.453 385.735 646.419 385.893L620.92 390.176L614.222 389.999L594.164 385.506C591.135 384.825 588.562 387.873 589.599 390.878Z" fill="url(#paint28_linear)"/>
<path d="M643.536 408.387C643.536 408.387 650.649 409.706 653.077 409.634C655.505 409.561 658.658 410.327 658.658 410.327C658.658 410.327 666.595 428.994 667.736 431.079C671.135 437.294 680.56 436.56 680.406 431.378C680.281 427.256 664.179 401.427 659.896 401.536C655.614 401.645 642.217 398.87 641.814 400.572C641.596 401.488 654.154 401.915 652.174 402.693C650.964 403.177 641.116 402.072 641.149 403.23C641.181 404.387 650.02 404.496 650.98 405.391C651.94 406.286 641.568 404.294 641.628 406.258C641.657 407.246 650.758 406.532 651.758 408.033C652.182 408.678 642.782 406.444 643.536 408.387Z" fill="#F7A491"/>
<path d="M595.576 405.343C595.445 405.285 595.303 405.257 595.16 405.26C595.017 405.263 594.877 405.298 594.748 405.361C594.62 405.425 594.508 405.516 594.419 405.627C594.329 405.739 594.266 405.869 594.233 406.008C594.092 406.613 594.063 407.343 594.511 407.827C595.402 408.787 601.625 409.702 601.657 408.779C601.685 408.065 597.507 406.178 595.576 405.343Z" fill="#F7A491"/>
<path d="M594.365 407.758C594.365 407.758 593.74 410.089 594.281 410.109C594.821 410.13 601.539 410.795 601.854 409.996C602.168 409.198 595.232 407.287 594.365 407.758Z" fill="#F7A491"/>
<path d="M594.075 410.166C594.075 410.166 593.886 411.202 594.442 411.799C594.999 412.396 601.265 412.005 601.495 410.993C601.725 409.98 594.297 409.4 594.075 410.166Z" fill="#F7A491"/>
<path d="M595.031 412.356C595.019 412.754 595.126 413.147 595.338 413.485C595.656 413.823 600.286 413.356 600.745 412.368C601.205 411.38 595.572 411.331 595.031 412.356Z" fill="#F7A491"/>
<path d="M610.734 467.107C610.734 467.107 608.524 475.108 606.298 480.415C604.847 483.875 604.472 487.327 603.508 489.057C601.088 493.428 597.1 493.602 593.942 490.976C590.785 488.351 595.019 477.265 595.019 477.265L604.992 463.236L610.734 467.107Z" fill="#F7A491"/>
<path d="M603.512 489.041C604.367 487.504 604.762 484.605 605.859 481.552C604.335 482.439 601.774 483.105 600.383 482.734C595.281 481.371 595.023 477.261 595.023 477.261C595.023 477.261 589.704 488.613 592.862 491.238C596.019 493.864 601.08 493.412 603.512 489.041Z" fill="#002A24"/>
<path d="M620.929 390.176L629.095 432.434L624.183 432.14L622.76 432.039L614.23 389.995L620.929 390.176Z" fill="url(#paint29_linear)"/>
<path d="M649.359 474.402C652.154 479.548 657.707 478.814 662.74 478.814C668.498 478.814 674.398 476.423 676.047 470.055C677.798 463.252 675.495 454.836 671.458 449.488C650.783 422.175 650.622 419.481 642.395 415.852C633.523 411.936 600.512 468.309 600.512 468.309L609.573 472.938C609.573 472.938 623.163 461.578 631.85 451.618C632.87 450.444 635.773 444.387 635.773 444.387C635.773 444.387 647.524 471.003 649.359 474.402Z" fill="#847D3D"/>
<path d="M259.981 521.048C260.081 520.828 260.123 520.586 260.104 520.345C260.085 520.104 260.005 519.872 259.871 519.671C259.738 519.469 259.556 519.305 259.341 519.193C259.127 519.081 258.888 519.026 258.647 519.031H87.3432C73.9144 519.031 63.0303 529.516 63.0303 542.421C63.0303 555.325 73.9185 565.81 87.3432 565.81H258.695C258.94 565.818 259.184 565.762 259.401 565.648C259.619 565.534 259.804 565.367 259.938 565.161C260.072 564.955 260.151 564.718 260.167 564.473C260.183 564.228 260.136 563.983 260.03 563.762C256.691 557.139 254.948 549.827 254.939 542.41C254.931 534.994 256.658 527.678 259.981 521.048Z" fill="#FA5457"/>
<path d="M258.905 523.371H158.584C151.458 523.371 145.68 532.134 145.68 542.949C145.68 553.761 151.454 562.528 158.584 562.528H259.437C256.571 556.414 255.041 549.759 254.949 543.007C254.857 536.254 256.206 529.56 258.905 523.371Z" fill="#EDFDFC"/>
<path d="M202.25 538.211H191.193C188.813 538.211 186.886 538.771 186.886 539.465V539.578H202.25V538.211Z" fill="url(#paint30_linear)"/>
<path d="M211.682 541.356C211.682 539.618 208.795 538.211 205.23 538.211H191.043C193.745 538.211 195.935 539.279 195.935 540.598L195.866 574.319L203.706 569.98L211.698 574.319L211.682 541.356Z" fill="url(#paint31_linear)"/>
<path d="M272.16 433.188L277.564 431.765L273.918 480.625L267.438 480.842L270.704 434.975C270.73 434.562 270.884 434.168 271.145 433.848C271.406 433.528 271.761 433.297 272.16 433.188Z" fill="#EDFDFC"/>
<path d="M274.386 482.004C274.263 482.018 274.138 482.018 274.015 482.004C273.471 481.908 272.985 481.607 272.656 481.164C272.327 480.721 272.179 480.169 272.245 479.62L275.838 433.688C275.843 433.421 275.903 433.158 276.013 432.914C276.124 432.671 276.283 432.452 276.48 432.272C276.678 432.092 276.911 431.954 277.163 431.867C277.416 431.78 277.684 431.745 277.951 431.765C278.495 431.861 278.981 432.161 279.311 432.604C279.641 433.047 279.789 433.6 279.725 434.148L276.128 480.08C276.111 480.555 275.926 481.008 275.608 481.359C275.289 481.711 274.856 481.939 274.386 482.004Z" fill="#473B1E"/>
<path d="M224.655 484.452C224.655 484.484 224.655 484.52 224.655 484.552C224.825 486.423 226.268 487.819 227.881 487.674L273.515 483.593C275.128 483.447 276.306 481.814 276.136 479.963C276.136 479.887 276.136 479.81 276.104 479.729L224.655 484.452Z" fill="#473B1E"/>
<path d="M256.433 533.787C253.445 535.444 244.311 532.541 244.311 532.275C244.182 534.775 234.084 559.205 234.084 559.205V566.722C234.084 566.722 254.888 567.714 254.59 565.875C254.292 564.036 253.171 565.234 249.021 561.762C248.654 561.455 242.827 560.1 244.404 556.652C247.585 549.704 254.332 538.122 256.433 533.787Z" fill="#F7A491"/>
<path d="M233.406 566.992H256.174C256.981 566.911 257.187 566.242 256.896 565.835C256.3 565 251.936 563.012 249 561.713C243.891 562.31 234.886 560.346 234.08 559.181C231.93 562.084 232.95 566.895 233.406 566.992Z" fill="url(#paint32_linear)"/>
<path d="M228.41 516.245C228.103 515.321 248.021 506.869 248.912 507.837C250.489 509.543 238.137 541.606 238.137 541.606L252.328 545.954C252.328 545.954 267.079 508.914 266.466 502.139C265.853 495.364 258.457 487.666 242.444 492.589C226.43 497.513 228.41 516.245 228.41 516.245Z" fill="#473B1E"/>
<path d="M269.643 538.001C266.284 537.392 261.925 537.195 258.437 537.154C258.84 540.259 260.856 556.188 260.481 557.164C259.561 559.566 257.893 561.608 255.723 562.987C255.723 562.987 271.188 576.936 272.119 575.327C273.051 573.718 271.43 573.932 270.422 568.613C270.333 568.141 268.095 560.721 267.958 556.721C267.692 549.087 269.53 542.239 269.643 538.001Z" fill="#F7A491"/>
<path d="M264.683 485.899C262.526 484.75 256.925 484.71 250.767 485.093C238.761 485.89 226.906 488.216 215.489 492.017L207.827 494.549L207.851 486.714C207.851 486.714 183.538 482.645 182.695 488.67C181.421 497.743 183.002 516.168 191.1 520.278C216.263 533.049 251.521 499.933 251.65 504.264C251.823 510.083 256.727 531.738 257.981 541.219C261.469 541.28 267.462 541.276 270.079 540.683C270.587 522.125 270.825 489.178 264.683 485.899Z" fill="#847D3D"/>
<path d="M255.251 563.294L272.636 577.182C273.325 577.638 273.898 577.243 273.93 576.743C273.999 575.719 271.874 571.424 270.434 568.553C266.103 565.774 260.389 558.535 260.494 557.112C258.659 558.677 254.965 562.947 255.251 563.294Z" fill="url(#paint33_linear)"/>
<path d="M215.904 410.162C215.319 404.827 214.694 399.467 210.282 395.555C206.701 392.39 202.148 391.854 197.644 393.539C184.889 398.338 191.462 409.67 175.198 421.086C170.141 424.635 164.572 427.067 160.765 431.845C155.442 438.536 157.45 446.581 162.306 451.952C185.53 477.656 211.46 442.943 213.323 434.612C214.706 428.418 216.279 413.598 215.904 410.162Z" fill="#002A24"/>
<path d="M211.19 440.181C210.015 438.024 208.728 435.929 207.335 433.906C205.367 430.406 200.286 428.639 200.286 428.639C200.286 428.639 198.584 428.672 196.632 428.769C196.563 429.012 196.436 429.235 196.261 429.418C195.527 429.966 191.325 429.256 188.599 431.103C179.493 438.907 182.014 476.737 182.727 488.686L210.46 488.948C210.46 488.948 206.964 463.24 212.597 456.634C216.529 452.033 214.001 445.367 211.19 440.181Z" fill="url(#paint34_linear)"/>
<path d="M198.689 415.84C198.689 415.84 197.164 426.728 196.1 429.369C195.035 432.011 201.955 437.673 207.71 439.391C213.464 441.108 205.951 433.547 206.189 430.72C206.427 427.893 207.476 414.501 207.476 414.501L198.689 415.84Z" fill="#F7A491"/>
<path d="M207.185 418.344C207.351 416.126 207.476 414.501 207.476 414.501L198.688 415.84C198.688 415.84 198.467 417.118 198.221 418.929C201.786 420.994 204.988 420.34 207.185 418.344Z" fill="#F47458"/>
<path d="M201.443 395.939C199.156 396.575 197.17 398.004 195.842 399.971C193.704 403.234 192.236 412.84 199.281 417.312C206.327 421.784 211.783 415.453 211.888 409.267C211.992 403.08 210.654 394.866 201.443 395.939Z" fill="#F7A491"/>
<path d="M213.501 407.371C212.9 408.863 211.71 409.791 210.839 409.44C209.968 409.089 209.75 407.597 210.351 406.105C210.952 404.613 212.146 403.685 213.017 404.036C213.888 404.387 214.102 405.879 213.501 407.371Z" fill="#F7A491"/>
<path d="M202.483 395.753C202.483 395.753 198.068 405.657 194.188 406.54C190.309 407.424 190.365 412.408 190.365 412.408C190.365 412.408 190.454 400.903 194.087 398.261C197.721 395.62 202.483 395.753 202.483 395.753Z" fill="#002A24"/>
<path d="M195.729 408.597C196.241 410.21 195.773 411.791 194.688 412.134C193.604 412.477 192.305 411.456 191.793 409.847C191.281 408.238 191.753 406.657 192.837 406.311C193.922 405.964 195.221 406.992 195.729 408.597Z" fill="#F7A491"/>
<path d="M245.331 480.088C243.665 479.487 241.189 479.411 241.233 479.193C241.399 478.302 248.75 481.153 247.754 479.858C247.202 479.136 241.705 476.576 240.366 476.999C239.028 477.423 230.547 479.798 230.547 479.798L207.266 474.342C207.266 474.342 201.391 460.989 200.814 449.517C195.955 450.174 192.648 451.372 188.426 453.715C190.462 464.687 195.41 482.471 200.883 485.81C203.181 487.214 230.66 484.129 230.66 484.129C230.66 484.129 236.709 483.701 237.705 483.322C238.455 483.032 240.387 481.943 241.439 481.645C243.826 480.971 248.085 482.669 248.097 482.201C248.109 481.858 247.032 480.701 245.331 480.088Z" fill="#F7A491"/>
<path d="M200.959 437.257C200.738 433.729 199.399 430.321 195.644 429.22C194.473 428.91 193.245 428.884 192.062 429.143C190.879 429.403 189.775 429.941 188.841 430.712C186.631 432.519 186.018 435.418 186.018 438.165C185.994 444.476 186.53 450.777 187.619 456.993C191.842 454.65 196.769 453.243 201.629 452.585C201.613 452.549 201.258 441.911 200.959 437.257Z" fill="url(#paint35_linear)"/>
<path d="M272.617 103.567C271.028 103.566 269.474 103.093 268.153 102.21C266.832 101.326 265.802 100.07 265.195 98.6015C264.587 97.1326 264.428 95.5166 264.739 93.9577C265.05 92.3988 265.816 90.967 266.94 89.8433C268.064 88.7197 269.496 87.9546 271.055 87.6448C272.615 87.335 274.23 87.4944 275.699 88.1029C277.167 88.7115 278.423 89.7417 279.306 91.0634C280.189 92.3852 280.66 93.939 280.66 95.5286C280.657 97.6604 279.809 99.7042 278.301 101.211C276.794 102.718 274.749 103.565 272.617 103.567ZM272.617 89.3383C271.393 89.3392 270.197 89.703 269.18 90.3837C268.162 91.0645 267.369 92.0316 266.902 93.1628C266.434 94.294 266.312 95.5385 266.551 96.739C266.79 97.9395 267.38 99.0421 268.246 99.9074C269.112 100.773 270.215 101.362 271.416 101.6C272.617 101.839 273.861 101.716 274.992 101.247C276.123 100.779 277.089 99.9852 277.769 98.9673C278.449 97.9494 278.812 96.7527 278.812 95.5286C278.81 93.8868 278.156 92.313 276.995 91.1524C275.834 89.9919 274.259 89.3395 272.617 89.3383Z" fill="#FA5457"/>
<path d="M283.15 111.555L275.957 101.908C275.805 101.718 275.733 101.477 275.758 101.235C275.783 100.993 275.902 100.771 276.09 100.616C276.278 100.462 276.519 100.389 276.761 100.412C277.003 100.435 277.227 100.552 277.382 100.739L277.441 100.802L285.533 109.793C285.796 110.085 285.933 110.471 285.912 110.864C285.891 111.257 285.715 111.626 285.423 111.89C285.13 112.153 284.744 112.29 284.351 112.269C283.958 112.249 283.589 112.072 283.325 111.78C283.294 111.747 283.266 111.713 283.24 111.676L283.15 111.555Z" fill="#FA5457"/>
<path d="M330.772 34.5699L330.324 36.7834L343.186 39.3838L343.634 37.1703L330.772 34.5699Z" fill="url(#paint36_linear)"/>
<path d="M348.117 60.1789L336.42 67.5392L337.623 69.4506L349.319 62.0902L348.117 60.1789Z" fill="url(#paint37_linear)"/>
<path d="M358.656 7.56107L356.439 7.99121L359.187 22.152L361.404 21.7218L358.656 7.56107Z" fill="url(#paint38_linear)"/>
<path d="M359.73 21.4255L382.502 27.285L390.394 48.1258L388.281 48.9283L380.804 29.1803L360.415 23.9339L345.051 39.2701L350.184 60.627L347.987 61.1553L342.559 38.5684L359.73 21.4255Z" fill="url(#paint39_linear)"/>
<path d="M384.296 47.8233C384.485 46.7605 384.984 45.7773 385.731 44.998C386.478 44.2187 387.439 43.6782 388.492 43.4449C389.546 43.2116 390.646 43.2958 391.652 43.687C392.658 44.0782 393.525 44.7589 394.145 45.6429C394.764 46.5269 395.108 47.5747 395.132 48.6538C395.156 49.7329 394.86 50.795 394.28 51.7059C393.701 52.6167 392.865 53.3355 391.878 53.7713C390.89 54.2072 389.796 54.3406 388.732 54.1546C387.305 53.9028 386.036 53.0945 385.204 51.9072C384.372 50.72 384.046 49.2511 384.296 47.8233Z" fill="#B7D972"/>
<path d="M376.594 26.5672C376.782 25.5043 377.281 24.5211 378.028 23.7418C378.775 22.9625 379.736 22.4221 380.79 22.1887C381.844 21.9554 382.943 22.0397 383.949 22.4309C384.955 22.8221 385.822 23.5027 386.442 24.3867C387.061 25.2707 387.405 26.3185 387.429 27.3976C387.453 28.4768 387.157 29.5389 386.578 30.4497C385.998 31.3606 385.162 32.0793 384.175 32.5152C383.187 32.951 382.093 33.0844 381.029 32.8985C380.322 32.7748 379.646 32.5128 379.04 32.1275C378.434 31.7421 377.91 31.2411 377.498 30.653C377.086 30.0649 376.794 29.4013 376.639 28.7002C376.484 27.9991 376.468 27.2743 376.594 26.5672Z" fill="#B7D972"/>
<path d="M363.844 26.5139C365.999 24.4036 366.034 20.9466 363.924 18.7924C361.814 16.6382 358.357 16.6026 356.202 18.7129C354.048 20.8232 354.012 24.2802 356.123 26.4344C358.233 28.5886 361.69 28.6241 363.844 26.5139Z" fill="#B7D972"/>
<path d="M351.507 4.84325C351.695 3.7804 352.194 2.79721 352.941 2.0179C353.688 1.2386 354.649 0.698134 355.703 0.464798C356.757 0.231463 357.856 0.315723 358.862 0.706935C359.868 1.09815 360.736 1.77875 361.355 2.66277C361.974 3.54679 362.318 4.59456 362.342 5.67369C362.366 6.75283 362.07 7.81491 361.491 8.72577C360.911 9.63662 360.075 10.3554 359.088 10.7912C358.1 11.2271 357.006 11.3605 355.943 11.1745C355.235 11.0508 354.559 10.7888 353.953 10.4035C353.347 10.0182 352.823 9.51716 352.411 8.92906C351.999 8.34096 351.707 7.67736 351.552 6.97625C351.397 6.27515 351.381 5.55031 351.507 4.84325Z" fill="#B7D972"/>
<path d="M321.733 33.6001C321.922 32.5373 322.421 31.5541 323.167 30.7748C323.914 29.9955 324.875 29.455 325.929 29.2217C326.983 28.9884 328.083 29.0726 329.089 29.4638C330.095 29.855 330.962 30.5357 331.581 31.4197C332.201 32.3037 332.544 33.3515 332.568 34.4306C332.593 35.5097 332.296 36.5718 331.717 37.4827C331.138 38.3935 330.302 39.1123 329.314 39.5481C328.327 39.984 327.232 40.1174 326.169 39.9314C325.462 39.8077 324.786 39.5457 324.18 39.1604C323.574 38.7751 323.05 38.2741 322.638 37.686C322.226 37.0979 321.934 36.4343 321.779 35.7332C321.623 35.032 321.608 34.3072 321.733 33.6001Z" fill="#B7D972"/>
<path d="M328.762 68.3174C328.951 67.2545 329.45 66.2713 330.197 65.492C330.943 64.7127 331.904 64.1723 332.958 63.9389C334.012 63.7056 335.112 63.7898 336.118 64.1811C337.124 64.5723 337.991 65.2529 338.61 66.1369C339.23 67.0209 339.573 68.0687 339.597 69.1478C339.622 70.2269 339.325 71.289 338.746 72.1999C338.167 73.1107 337.331 73.8295 336.343 74.2653C335.356 74.7012 334.261 74.8346 333.198 74.6486C331.771 74.3968 330.501 73.5885 329.67 72.4013C328.838 71.214 328.511 69.7451 328.762 68.3174Z" fill="#B7D972"/>
<path d="M337.51 37.7377C337.698 36.6748 338.197 35.6916 338.944 34.9123C339.691 34.133 340.652 33.5925 341.706 33.3592C342.76 33.1259 343.859 33.2101 344.865 33.6013C345.871 33.9926 346.738 34.6732 347.358 35.5572C347.977 36.4412 348.321 37.489 348.345 38.5681C348.369 39.6472 348.073 40.7093 347.494 41.6202C346.914 42.531 346.078 43.2498 345.091 43.6856C344.103 44.1215 343.009 44.2549 341.945 44.0689C341.238 43.9452 340.562 43.6832 339.956 43.2979C339.35 42.9126 338.826 42.4116 338.414 41.8235C338.002 41.2354 337.71 40.5718 337.555 39.8707C337.4 39.1696 337.384 38.4447 337.51 37.7377Z" fill="#B7D972"/>
<path d="M343.344 60.1915C343.533 59.1287 344.032 58.1455 344.779 57.3662C345.526 56.5869 346.487 56.0464 347.541 55.8131C348.595 55.5797 349.694 55.664 350.7 56.0552C351.706 56.4464 352.573 57.127 353.193 58.011C353.812 58.8951 354.156 59.9428 354.18 61.022C354.204 62.1011 353.908 63.1632 353.329 64.074C352.749 64.9849 351.913 65.7036 350.926 66.1395C349.938 66.5753 348.844 66.7087 347.78 66.5228C347.073 66.3991 346.397 66.1371 345.791 65.7518C345.185 65.3665 344.661 64.8654 344.249 64.2773C343.837 63.6892 343.545 63.0256 343.39 62.3245C343.235 61.6234 343.219 60.8986 343.344 60.1915Z" fill="#B7D972"/>
<path d="M509.144 581.469L444.69 563.451C443.132 563.016 441.812 561.98 441.019 560.571C440.225 559.162 440.024 557.496 440.459 555.938L466.305 463.49C466.519 462.718 466.884 461.996 467.378 461.365C467.872 460.735 468.485 460.207 469.183 459.814C469.881 459.42 470.649 459.168 471.444 459.071C472.239 458.975 473.046 459.036 473.817 459.251L538.271 477.273C539.043 477.488 539.764 477.854 540.394 478.348C541.024 478.842 541.551 479.455 541.944 480.153C542.337 480.851 542.588 481.619 542.684 482.414C542.78 483.209 542.718 484.015 542.502 484.786L516.656 577.231C516.442 578.003 516.077 578.724 515.583 579.355C515.089 579.986 514.476 580.513 513.778 580.907C513.08 581.3 512.312 581.553 511.517 581.649C510.722 581.746 509.915 581.684 509.144 581.469Z" fill="#EDFDFC"/>
<path d="M531.605 492.791L473.68 476.592C473.459 476.53 473.253 476.425 473.072 476.283C472.892 476.142 472.741 475.966 472.629 475.766C472.517 475.566 472.445 475.346 472.418 475.118C472.39 474.89 472.408 474.659 472.47 474.438C472.532 474.218 472.637 474.011 472.779 473.831C472.921 473.65 473.096 473.5 473.296 473.387C473.496 473.275 473.716 473.203 473.944 473.176C474.172 473.149 474.403 473.167 474.624 473.229L532.545 489.42C532.766 489.482 532.972 489.586 533.153 489.728C533.333 489.87 533.484 490.046 533.596 490.246C533.708 490.446 533.78 490.666 533.807 490.894C533.835 491.121 533.817 491.352 533.755 491.573C533.63 492.019 533.334 492.398 532.931 492.626C532.529 492.854 532.052 492.914 531.605 492.791Z" fill="#F78F2A"/>
<path d="M519.313 496.755L471.76 483.447C471.539 483.385 471.333 483.281 471.152 483.139C470.972 482.997 470.821 482.821 470.709 482.621C470.597 482.421 470.525 482.201 470.498 481.973C470.47 481.746 470.488 481.515 470.55 481.294C470.612 481.073 470.717 480.867 470.859 480.686C471.001 480.506 471.176 480.355 471.376 480.243C471.576 480.131 471.797 480.059 472.024 480.031C472.252 480.004 472.483 480.022 472.704 480.084L520.257 493.392C520.703 493.518 521.081 493.816 521.308 494.22C521.535 494.625 521.592 495.103 521.467 495.549C521.34 495.994 521.042 496.37 520.639 496.596C520.235 496.822 519.759 496.879 519.313 496.755Z" fill="#01B4BC"/>
<path d="M527.758 506.526L469.841 490.335C469.395 490.209 469.017 489.911 468.79 489.507C468.563 489.102 468.506 488.624 468.632 488.178C468.758 487.732 469.055 487.355 469.458 487.128C469.862 486.901 470.339 486.844 470.785 486.968L528.706 503.163C528.927 503.225 529.133 503.33 529.314 503.471C529.494 503.613 529.645 503.789 529.757 503.989C529.869 504.189 529.941 504.409 529.969 504.637C529.996 504.865 529.978 505.096 529.916 505.316C529.79 505.763 529.492 506.141 529.087 506.368C528.683 506.595 528.205 506.652 527.758 506.526Z" fill="#B7D972"/>
<path d="M512.624 509.7L467.918 497.199C467.471 497.073 467.093 496.775 466.866 496.37C466.639 495.966 466.582 495.488 466.708 495.041C466.834 494.596 467.131 494.218 467.535 493.992C467.938 493.765 468.415 493.707 468.861 493.831L513.563 506.333C514.01 506.459 514.388 506.757 514.615 507.161C514.841 507.566 514.898 508.044 514.773 508.49C514.648 508.935 514.351 509.313 513.948 509.539C513.546 509.766 513.069 509.824 512.624 509.7Z" fill="#F3484D"/>
<path d="M482.088 455.759L480.923 455.436C480.725 455.375 480.51 455.394 480.327 455.49C480.143 455.586 480.005 455.751 479.943 455.949L477.487 464.724C477.443 464.925 477.479 465.136 477.586 465.312C477.694 465.489 477.864 465.617 478.063 465.671L479.229 465.998C479.427 466.053 479.639 466.031 479.821 465.935C480.004 465.839 480.142 465.677 480.209 465.482L482.661 456.711C482.705 456.509 482.671 456.298 482.564 456.121C482.458 455.944 482.287 455.814 482.088 455.759Z" fill="#B7D972"/>
<path d="M487.076 457.154L485.911 456.828C485.712 456.772 485.5 456.795 485.318 456.891C485.136 456.987 484.997 457.149 484.931 457.344L482.475 466.115C482.43 466.317 482.465 466.529 482.573 466.706C482.68 466.883 482.852 467.012 483.052 467.067L484.217 467.393C484.415 467.449 484.627 467.426 484.81 467.33C484.992 467.234 485.13 467.072 485.197 466.877L487.649 458.102C487.673 458.002 487.678 457.899 487.663 457.797C487.647 457.695 487.612 457.598 487.559 457.51C487.506 457.422 487.436 457.345 487.353 457.284C487.27 457.223 487.176 457.179 487.076 457.154Z" fill="#B7D972"/>
<path d="M492.085 458.55L490.92 458.223C490.821 458.192 490.718 458.182 490.616 458.191C490.513 458.2 490.414 458.23 490.322 458.278C490.231 458.326 490.151 458.391 490.085 458.47C490.019 458.55 489.97 458.641 489.94 458.739L487.484 467.51C487.439 467.713 487.474 467.924 487.582 468.101C487.689 468.279 487.86 468.408 488.06 468.462L489.226 468.785C489.424 468.846 489.638 468.827 489.822 468.731C490.005 468.635 490.144 468.47 490.206 468.272L492.658 459.497C492.683 459.397 492.688 459.294 492.673 459.192C492.658 459.09 492.622 458.992 492.569 458.904C492.516 458.816 492.446 458.739 492.363 458.678C492.279 458.617 492.185 458.574 492.085 458.55Z" fill="#B7D972"/>
<path d="M497.054 459.945L495.888 459.618C495.69 459.556 495.476 459.576 495.292 459.672C495.108 459.768 494.97 459.933 494.908 460.131L492.456 468.906C492.431 469.005 492.426 469.109 492.441 469.211C492.456 469.313 492.492 469.411 492.545 469.499C492.598 469.587 492.668 469.664 492.751 469.725C492.835 469.785 492.929 469.829 493.029 469.853L494.194 470.18C494.392 470.242 494.607 470.223 494.79 470.127C494.974 470.031 495.112 469.866 495.174 469.668L497.63 460.893C497.674 460.691 497.638 460.48 497.531 460.304C497.423 460.128 497.253 459.999 497.054 459.945Z" fill="#B7D972"/>
<path d="M502.042 461.34L500.877 461.014C500.679 460.952 500.464 460.971 500.281 461.067C500.097 461.163 499.959 461.328 499.897 461.526L497.445 470.301C497.42 470.401 497.415 470.504 497.431 470.606C497.446 470.708 497.481 470.805 497.535 470.893C497.588 470.981 497.658 471.058 497.741 471.119C497.823 471.18 497.918 471.224 498.017 471.249L499.183 471.575C499.381 471.637 499.595 471.618 499.779 471.522C499.963 471.426 500.101 471.261 500.163 471.063L502.619 462.288C502.643 462.188 502.648 462.084 502.632 461.982C502.617 461.88 502.581 461.782 502.527 461.694C502.474 461.606 502.403 461.53 502.32 461.469C502.237 461.408 502.142 461.364 502.042 461.34Z" fill="#B7D972"/>
<path d="M507.034 462.736L505.865 462.409C505.667 462.347 505.453 462.366 505.269 462.462C505.085 462.558 504.947 462.723 504.885 462.921L502.433 471.696C502.408 471.796 502.404 471.9 502.419 472.001C502.434 472.103 502.47 472.201 502.523 472.289C502.576 472.377 502.646 472.453 502.729 472.514C502.812 472.575 502.906 472.619 503.006 472.644L504.171 472.97C504.369 473.032 504.583 473.013 504.767 472.917C504.951 472.821 505.089 472.656 505.151 472.458L507.607 463.683C507.632 463.583 507.636 463.48 507.621 463.378C507.606 463.276 507.57 463.179 507.517 463.091C507.464 463.003 507.394 462.926 507.311 462.865C507.228 462.804 507.134 462.76 507.034 462.736Z" fill="#B7D972"/>
<path d="M512.023 464.127L510.853 463.804C510.655 463.742 510.441 463.762 510.257 463.858C510.073 463.954 509.935 464.119 509.873 464.316L507.421 473.091C507.397 473.191 507.392 473.295 507.407 473.397C507.423 473.498 507.458 473.596 507.511 473.684C507.564 473.772 507.634 473.849 507.717 473.91C507.8 473.971 507.894 474.015 507.994 474.039L509.159 474.366C509.258 474.396 509.361 474.407 509.463 474.398C509.566 474.388 509.665 474.359 509.756 474.311C509.847 474.263 509.928 474.198 509.994 474.118C510.06 474.039 510.109 473.948 510.139 473.85L512.595 465.075C512.639 464.873 512.604 464.663 512.497 464.487C512.391 464.311 512.221 464.182 512.023 464.127Z" fill="#B7D972"/>
<path d="M517.011 465.522L515.841 465.196C515.743 465.165 515.64 465.154 515.537 465.163C515.435 465.173 515.335 465.202 515.244 465.25C515.153 465.298 515.073 465.364 515.007 465.443C514.941 465.522 514.892 465.613 514.861 465.712L512.41 474.487C512.385 474.587 512.38 474.69 512.396 474.792C512.411 474.894 512.446 474.991 512.499 475.079C512.553 475.167 512.623 475.244 512.705 475.305C512.788 475.366 512.882 475.41 512.982 475.434L514.148 475.757C514.346 475.814 514.559 475.792 514.742 475.697C514.925 475.602 515.064 475.44 515.132 475.245L517.584 466.47C517.627 466.269 517.592 466.058 517.486 465.882C517.379 465.706 517.209 465.577 517.011 465.522Z" fill="#B7D972"/>
<path d="M521.999 466.913L520.834 466.587C520.635 466.53 520.423 466.552 520.24 466.647C520.057 466.742 519.917 466.904 519.85 467.099L517.398 475.874C517.373 475.974 517.368 476.078 517.384 476.179C517.399 476.281 517.435 476.379 517.488 476.467C517.541 476.555 517.611 476.631 517.694 476.692C517.777 476.753 517.871 476.797 517.971 476.822L519.136 477.148C519.334 477.205 519.547 477.184 519.73 477.088C519.913 476.993 520.053 476.831 520.12 476.636L522.572 467.861C522.615 467.66 522.58 467.45 522.474 467.273C522.367 467.097 522.198 466.968 521.999 466.913Z" fill="#B7D972"/>
<path d="M526.987 468.313L525.822 467.986C525.624 467.929 525.411 467.951 525.228 468.046C525.045 468.141 524.905 468.303 524.838 468.498L522.386 477.273C522.361 477.373 522.357 477.477 522.372 477.579C522.388 477.68 522.423 477.778 522.476 477.866C522.529 477.954 522.599 478.031 522.682 478.092C522.765 478.152 522.859 478.196 522.959 478.221L524.124 478.548C524.323 478.604 524.535 478.583 524.718 478.488C524.901 478.392 525.041 478.231 525.108 478.036L527.56 469.26C527.604 469.059 527.569 468.849 527.462 468.673C527.356 468.497 527.186 468.368 526.987 468.313Z" fill="#B7D972"/>
<path d="M531.976 469.708L530.811 469.381C530.612 469.325 530.4 469.346 530.216 469.441C530.033 469.537 529.894 469.699 529.827 469.894L527.375 478.669C527.331 478.87 527.366 479.08 527.473 479.256C527.579 479.432 527.749 479.561 527.947 479.616L529.113 479.943C529.311 480 529.524 479.978 529.707 479.883C529.89 479.788 530.029 479.626 530.097 479.431L532.549 470.656C532.573 470.556 532.578 470.452 532.563 470.351C532.547 470.249 532.512 470.151 532.459 470.063C532.406 469.975 532.336 469.898 532.253 469.838C532.17 469.777 532.076 469.733 531.976 469.708Z" fill="#B7D972"/>
<path d="M536.965 471.099L535.8 470.777C535.601 470.72 535.389 470.741 535.206 470.837C535.023 470.932 534.883 471.094 534.816 471.289L532.364 480.064C532.32 480.265 532.355 480.475 532.462 480.652C532.568 480.828 532.738 480.957 532.937 481.012L534.102 481.338C534.301 481.395 534.514 481.373 534.697 481.277C534.88 481.181 535.019 481.018 535.086 480.822L537.538 472.051C537.582 471.849 537.548 471.638 537.441 471.461C537.335 471.284 537.164 471.154 536.965 471.099Z" fill="#B7D972"/>
<path d="M376.304 551.087L437.87 549.813C438.007 549.81 438.143 549.787 438.273 549.744L449.335 546.115C449.615 546.023 449.859 545.843 450.03 545.604C450.201 545.364 450.292 545.075 450.288 544.78C450.285 544.485 450.187 544.199 450.01 543.964C449.833 543.728 449.585 543.555 449.303 543.469L437.943 540.054C437.804 540.013 437.66 539.994 437.515 539.997L375.791 541.276C375.604 541.279 375.42 541.32 375.25 541.397C375.079 541.474 374.926 541.584 374.799 541.722C374.672 541.859 374.575 542.021 374.513 542.198C374.45 542.374 374.424 542.561 374.436 542.748L374.892 549.801C374.918 550.155 375.079 550.486 375.341 550.725C375.604 550.965 375.948 551.094 376.304 551.087Z" fill="url(#paint40_linear)"/>
<path d="M437.583 539.985H437.733L448.693 543.28L448.822 546.276L438.338 549.728C437.934 546.695 437.241 543.219 437.583 539.985Z" fill="#B7D972"/>
<path d="M474.083 564.818C473.504 564.837 472.927 564.737 472.387 564.525C471.848 564.313 471.357 563.993 470.946 563.584C467.893 560.52 469.062 552.696 469.498 546.881C469.7 544.155 469.934 541.062 468.691 538.711C467.244 535.981 461.465 536.291 457.182 538.271C454.307 539.602 451.617 541.977 452.682 544.643C452.725 544.78 452.715 544.929 452.652 545.058C452.59 545.188 452.48 545.289 452.345 545.34C452.211 545.392 452.062 545.39 451.929 545.335C451.796 545.281 451.689 545.177 451.629 545.046C450.492 542.199 452.436 539.203 456.706 537.227C461.546 534.993 467.865 534.719 469.692 538.163C471.091 540.804 470.845 544.07 470.631 546.95C470.228 552.466 469.099 560.104 471.752 562.766C472.116 563.118 472.557 563.381 473.04 563.534C473.523 563.687 474.034 563.727 474.535 563.649C479.902 563.173 479.023 552.111 479.922 548.151C481.245 542.312 483.378 535.053 489.278 535.912C493.67 536.558 496.892 539.667 498.594 544.913C499.377 547.393 499.797 549.974 499.84 552.575C499.839 552.724 499.779 552.867 499.673 552.972C499.567 553.077 499.424 553.136 499.275 553.136C499.125 553.135 498.981 553.074 498.876 552.968C498.77 552.861 498.711 552.717 498.711 552.567C498.658 550.074 498.251 547.602 497.501 545.224C495.916 540.384 493.093 537.606 489.105 537.021C483.975 536.275 482.165 543.336 481.039 548.389C480.064 552.644 481.237 564.818 474.083 564.818Z" fill="url(#paint41_linear)"/>
<path d="M191.378 129.811L187.837 126.71L183.276 127.872C183.159 127.901 183.037 127.896 182.922 127.86C182.807 127.823 182.705 127.755 182.627 127.663C182.548 127.571 182.497 127.46 182.479 127.341C182.46 127.221 182.475 127.1 182.522 126.988L184.377 122.665L181.865 118.685C181.8 118.583 181.766 118.465 181.765 118.345C181.764 118.224 181.797 118.106 181.86 118.003C181.923 117.9 182.013 117.817 182.121 117.763C182.229 117.709 182.35 117.686 182.47 117.697L187.156 118.125L190.164 114.495C190.242 114.403 190.343 114.334 190.458 114.297C190.572 114.259 190.695 114.254 190.812 114.282C190.929 114.31 191.036 114.37 191.121 114.455C191.206 114.541 191.266 114.648 191.293 114.765L192.334 119.355L196.705 121.097C196.817 121.142 196.914 121.217 196.985 121.314C197.056 121.411 197.098 121.526 197.108 121.646C197.117 121.766 197.092 121.886 197.037 121.993C196.982 122.1 196.897 122.189 196.794 122.25L192.761 124.67L192.459 129.38C192.451 129.501 192.408 129.618 192.337 129.716C192.265 129.815 192.167 129.891 192.054 129.936C191.941 129.981 191.818 129.993 191.698 129.971C191.579 129.949 191.468 129.894 191.378 129.811Z" fill="url(#paint42_linear)"/>
<path d="M170.795 68.3334L167.255 65.2323L162.694 66.3937C162.577 66.4227 162.454 66.4186 162.339 66.3817C162.225 66.3449 162.122 66.2768 162.044 66.1851C161.966 66.0935 161.914 65.9818 161.896 65.8627C161.878 65.7435 161.893 65.6216 161.94 65.5106L163.795 61.1876L161.282 57.1952C161.219 57.0928 161.186 56.9748 161.186 56.8544C161.185 56.7339 161.219 56.6159 161.282 56.5134C161.345 56.4109 161.436 56.328 161.543 56.2739C161.651 56.2198 161.771 56.1968 161.891 56.2072L166.573 56.6347L169.582 53.0053C169.659 52.9131 169.761 52.8443 169.875 52.8066C169.99 52.7688 170.112 52.7637 170.23 52.7918C170.347 52.8198 170.454 52.8799 170.539 52.9653C170.624 53.0508 170.683 53.1582 170.711 53.2755L171.751 57.8606L176.123 59.6148C176.234 59.6597 176.331 59.735 176.402 59.832C176.473 59.929 176.516 60.044 176.525 60.164C176.534 60.2839 176.51 60.4041 176.454 60.5108C176.399 60.6176 176.315 60.7067 176.211 60.7682L172.179 63.1878L171.872 67.8858C171.866 68.0078 171.826 68.1256 171.756 68.2255C171.685 68.3254 171.588 68.4033 171.475 68.4502C171.363 68.4971 171.239 68.511 171.119 68.4903C170.998 68.4697 170.886 68.4153 170.795 68.3334Z" fill="#FA5457"/>
<defs>
<linearGradient id="paint0_linear" x1="56.1025" y1="114.56" x2="90.1866" y2="114.56" gradientUnits="userSpaceOnUse">
<stop stop-color="#00503E"/>
<stop offset="1" stop-color="#023222"/>
</linearGradient>
<linearGradient id="paint1_linear" x1="127.598" y1="239.644" x2="127.598" y2="199.975" gradientUnits="userSpaceOnUse">
<stop stop-color="#53CD9F"/>
<stop offset="1" stop-color="#0D7A5C"/>
</linearGradient>
<linearGradient id="paint2_linear" x1="1954.86" y1="2554.13" x2="2047.66" y2="2554.13" gradientUnits="userSpaceOnUse">
<stop stop-color="#00503E"/>
<stop offset="1" stop-color="#023222"/>
</linearGradient>
<linearGradient id="paint3_linear" x1="690.974" y1="14.4666" x2="581.522" y2="554.285" gradientUnits="userSpaceOnUse">
<stop stop-color="#FFC1C3"/>
<stop offset="1" stop-color="#FF5B60"/>
</linearGradient>
<linearGradient id="paint4_linear" x1="38152" y1="2864.35" x2="38451.7" y2="8726.85" gradientUnits="userSpaceOnUse">
<stop stop-color="#FB9A2B"/>
<stop offset="1" stop-color="#E65925"/>
</linearGradient>
<linearGradient id="paint5_linear" x1="17583.8" y1="-415.616" x2="16012.5" y2="4264.47" gradientUnits="userSpaceOnUse">
<stop stop-color="#53CD9F"/>
<stop offset="1" stop-color="#0D7A5C"/>
</linearGradient>
<linearGradient id="paint6_linear" x1="22220.5" y1="2388.27" x2="21341.1" y2="3352.64" gradientUnits="userSpaceOnUse">
<stop stop-color="#FB9A2B"/>
<stop offset="1" stop-color="#E65925"/>
</linearGradient>
<linearGradient id="paint7_linear" x1="25857.4" y1="1235.43" x2="25524.2" y2="2041.66" gradientUnits="userSpaceOnUse">
<stop stop-color="#FB9A2B"/>
<stop offset="1" stop-color="#E65925"/>
</linearGradient>
<linearGradient id="paint8_linear" x1="13221.1" y1="2087.98" x2="12506.8" y2="2629.52" gradientUnits="userSpaceOnUse">
<stop stop-color="#FB9A2B"/>
<stop offset="1" stop-color="#E65925"/>
</linearGradient>
<linearGradient id="paint9_linear" x1="16685.3" y1="1842.68" x2="16010.2" y2="2561.69" gradientUnits="userSpaceOnUse">
<stop stop-color="#FB9A2B"/>
<stop offset="1" stop-color="#E65925"/>
</linearGradient>
<linearGradient id="paint10_linear" x1="2307.31" y1="5252.21" x2="2579.49" y2="5252.21" gradientUnits="userSpaceOnUse">
<stop stop-color="#53CD9F"/>
<stop offset="1" stop-color="#0D7A5C"/>
</linearGradient>
<linearGradient id="paint11_linear" x1="1985.47" y1="4324.9" x2="4390.74" y2="4324.9" gradientUnits="userSpaceOnUse">
<stop stop-color="#53CD9F"/>
<stop offset="1" stop-color="#0D7A5C"/>
</linearGradient>
<linearGradient id="paint12_linear" x1="69293.7" y1="5637.19" x2="1.22275e+06" y2="5637.19" gradientUnits="userSpaceOnUse">
<stop stop-color="#53CD9F"/>
<stop offset="1" stop-color="#0D7A5C"/>
</linearGradient>
<linearGradient id="paint13_linear" x1="29758.7" y1="2088.56" x2="29856.5" y2="5595.21" gradientUnits="userSpaceOnUse">
<stop stop-color="#FB9A2B"/>
<stop offset="1" stop-color="#E65925"/>
</linearGradient>
<linearGradient id="paint14_linear" x1="2268.77" y1="194158" x2="13968.6" y2="191750" gradientUnits="userSpaceOnUse">
<stop stop-color="#00503E"/>
<stop offset="1" stop-color="#023222"/>
</linearGradient>
<linearGradient id="paint15_linear" x1="10534.1" y1="144085" x2="35067" y2="155136" gradientUnits="userSpaceOnUse">
<stop stop-color="#00503E"/>
<stop offset="1" stop-color="#023222"/>
</linearGradient>
<linearGradient id="paint16_linear" x1="67642.1" y1="8460.57" x2="74714.3" y2="8460.57" gradientUnits="userSpaceOnUse">
<stop stop-color="#FB9A2B"/>
<stop offset="1" stop-color="#E65925"/>
</linearGradient>
<linearGradient id="paint17_linear" x1="9980.01" y1="12401.2" x2="10119.2" y2="12401.2" gradientUnits="userSpaceOnUse">
<stop stop-color="#FB9A2B"/>
<stop offset="1" stop-color="#E65925"/>
</linearGradient>
<linearGradient id="paint18_linear" x1="37749.1" y1="961.032" x2="40202.2" y2="961.032" gradientUnits="userSpaceOnUse">
<stop stop-color="#00503E"/>
<stop offset="1" stop-color="#023222"/>
</linearGradient>
<linearGradient id="paint19_linear" x1="18695.2" y1="8909.41" x2="19307.8" y2="8909.41" gradientUnits="userSpaceOnUse">
<stop stop-color="#00503E"/>
<stop offset="1" stop-color="#023222"/>
</linearGradient>
<linearGradient id="paint20_linear" x1="19590.6" y1="12129" x2="20190.7" y2="12129" gradientUnits="userSpaceOnUse">
<stop stop-color="#FB9A2B"/>
<stop offset="1" stop-color="#E65925"/>
</linearGradient>
<linearGradient id="paint21_linear" x1="77554.8" y1="12381.6" x2="101084" y2="12381.6" gradientUnits="userSpaceOnUse">
<stop stop-color="#00503E"/>
<stop offset="1" stop-color="#023222"/>
</linearGradient>
<linearGradient id="paint22_linear" x1="10606.5" y1="14267.6" x2="10328.1" y2="15636" gradientUnits="userSpaceOnUse">
<stop stop-color="#53CD9F"/>
<stop offset="1" stop-color="#0D7A5C"/>
</linearGradient>
<linearGradient id="paint23_linear" x1="8250.42" y1="7702.65" x2="8204.71" y2="8533.95" gradientUnits="userSpaceOnUse">
<stop stop-color="#3BECA9"/>
<stop offset="1" stop-color="#0D7A5C"/>
</linearGradient>
<linearGradient id="paint24_linear" x1="195643" y1="39580.1" x2="244339" y2="39580.1" gradientUnits="userSpaceOnUse">
<stop stop-color="#FB9A2B"/>
<stop offset="1" stop-color="#E65925"/>
</linearGradient>
<linearGradient id="paint25_linear" x1="202887" y1="37302.8" x2="251590" y2="37302.8" gradientUnits="userSpaceOnUse">
<stop stop-color="#00503E"/>
<stop offset="1" stop-color="#023222"/>
</linearGradient>
<linearGradient id="paint26_linear" x1="19458.8" y1="2429.6" x2="19798.9" y2="2429.6" gradientUnits="userSpaceOnUse">
<stop stop-color="#FB9A2B"/>
<stop offset="1" stop-color="#E65925"/>
</linearGradient>
<linearGradient id="paint27_linear" x1="26069.5" y1="51723.6" x2="26684.5" y2="51723.6" gradientUnits="userSpaceOnUse">
<stop stop-color="#FB9A2B"/>
<stop offset="1" stop-color="#E65925"/>
</linearGradient>
<linearGradient id="paint28_linear" x1="109851" y1="42907.1" x2="105598" y2="53352.2" gradientUnits="userSpaceOnUse">
<stop stop-color="#FB9A2B"/>
<stop offset="1" stop-color="#E65925"/>
</linearGradient>
<linearGradient id="paint29_linear" x1="23521.6" y1="48943.6" x2="23438" y2="44215.4" gradientUnits="userSpaceOnUse">
<stop stop-color="#FB9A2B"/>
<stop offset="1" stop-color="#E65925"/>
</linearGradient>
<linearGradient id="paint30_linear" x1="7288.02" y1="2363.86" x2="7873.41" y2="2363.86" gradientUnits="userSpaceOnUse">
<stop stop-color="#FB9A2B"/>
<stop offset="1" stop-color="#E65925"/>
</linearGradient>
<linearGradient id="paint31_linear" x1="9950.46" y1="50316.2" x2="11008.4" y2="50316.2" gradientUnits="userSpaceOnUse">
<stop stop-color="#FB9A2B"/>
<stop offset="1" stop-color="#E65925"/>
</linearGradient>
<linearGradient id="paint32_linear" x1="14205.1" y1="11459.8" x2="15665" y2="11459.8" gradientUnits="userSpaceOnUse">
<stop stop-color="#00503E"/>
<stop offset="1" stop-color="#023222"/>
</linearGradient>
<linearGradient id="paint33_linear" x1="12065.3" y1="29055.2" x2="12932.1" y2="29055.2" gradientUnits="userSpaceOnUse">
<stop stop-color="#00503E"/>
<stop offset="1" stop-color="#023222"/>
</linearGradient>
<linearGradient id="paint34_linear" x1="18237.4" y1="65219.2" x2="11633.8" y2="69293.4" gradientUnits="userSpaceOnUse">
<stop stop-color="#53CD9F"/>
<stop offset="1" stop-color="#0D7A5C"/>
</linearGradient>
<linearGradient id="paint35_linear" x1="6905.07" y1="34408.1" x2="8471.59" y2="32406.9" gradientUnits="userSpaceOnUse">
<stop stop-color="#53CD9F"/>
<stop offset="1" stop-color="#0D7A5C"/>
</linearGradient>
<linearGradient id="paint36_linear" x1="2453.06" y1="-743.405" x2="1561.99" y2="-520.686" gradientUnits="userSpaceOnUse">
<stop stop-color="#53CD9F"/>
<stop offset="1" stop-color="#0D7A5C"/>
</linearGradient>
<linearGradient id="paint37_linear" x1="13875.4" y1="-3.93872" x2="13803" y2="639.787" gradientUnits="userSpaceOnUse">
<stop stop-color="#53CD9F"/>
<stop offset="1" stop-color="#0D7A5C"/>
</linearGradient>
<linearGradient id="paint38_linear" x1="2500.58" y1="-730.611" x2="1600.38" y2="-525.931" gradientUnits="userSpaceOnUse">
<stop stop-color="#53CD9F"/>
<stop offset="1" stop-color="#0D7A5C"/>
</linearGradient>
<linearGradient id="paint39_linear" x1="47916.8" y1="-762.046" x2="42974.7" y2="7879.96" gradientUnits="userSpaceOnUse">
<stop stop-color="#53CD9F"/>
<stop offset="1" stop-color="#0D7A5C"/>
</linearGradient>
<linearGradient id="paint40_linear" x1="81193.1" y1="14105.2" x2="81083.7" y2="16212.8" gradientUnits="userSpaceOnUse">
<stop stop-color="#FB9A2B"/>
<stop offset="1" stop-color="#E65925"/>
</linearGradient>
<linearGradient id="paint41_linear" x1="59064.1" y1="37805.8" x2="57922.7" y2="43137.5" gradientUnits="userSpaceOnUse">
<stop stop-color="#FB9A2B"/>
<stop offset="1" stop-color="#E65925"/>
</linearGradient>
<linearGradient id="paint42_linear" x1="8085.79" y1="1772.66" x2="6569.01" y2="7854.15" gradientUnits="userSpaceOnUse">
<stop stop-color="#FB9A2B"/>
<stop offset="1" stop-color="#E65925"/>
</linearGradient>
</defs>
</svg>
